<svg width="92" height="32" viewBox="0 0 92 32" fill="none" xmlns="http://www.w3.org/2000/svg">
<path d="M12.375 19.75V12.25H13.625V19.75H12.375ZM14.875 22.25V9.75H16.125V22.25H14.875ZM9.875 17.25V14.75H11.125V17.25H9.875ZM17.375 19.75V12.25H18.625V19.75H17.375ZM19.875 17.25V14.75H21.125V17.25H19.875Z" fill="white"/>
<path d="M25.7585 20V11.2727H27.6037V18.4787H31.3452V20H25.7585ZM32.305 20V13.4545H34.1204V20H32.305ZM33.217 12.6108C32.9471 12.6108 32.7155 12.5213 32.5224 12.3423C32.332 12.1605 32.2368 11.9432 32.2368 11.6903C32.2368 11.4403 32.332 11.2259 32.5224 11.0469C32.7155 10.8651 32.9471 10.7741 33.217 10.7741C33.4868 10.7741 33.717 10.8651 33.9073 11.0469C34.1005 11.2259 34.1971 11.4403 34.1971 11.6903C34.1971 11.9432 34.1005 12.1605 33.9073 12.3423C33.717 12.5213 33.4868 12.6108 33.217 12.6108ZM41.4488 13.4545L39.1605 20H37.115L34.8267 13.4545H36.7443L38.1037 18.1378H38.1718L39.527 13.4545H41.4488ZM44.9218 20.1278C44.2485 20.1278 43.669 19.9915 43.1832 19.7188C42.7002 19.4432 42.3281 19.054 42.0667 18.5511C41.8053 18.0455 41.6747 17.4474 41.6747 16.7571C41.6747 16.0838 41.8053 15.4929 42.0667 14.9844C42.3281 14.4759 42.696 14.0795 43.1704 13.7955C43.6477 13.5114 44.2073 13.3693 44.8494 13.3693C45.2812 13.3693 45.6832 13.4389 46.0553 13.5781C46.4303 13.7145 46.7571 13.9205 47.0355 14.196C47.3167 14.4716 47.5355 14.8182 47.6917 15.2358C47.848 15.6506 47.9261 16.1364 47.9261 16.6932V17.1918H42.3991V16.0668H46.2173C46.2173 15.8054 46.1605 15.5739 46.0468 15.3722C45.9332 15.1705 45.7755 15.0128 45.5738 14.8991C45.3749 14.7827 45.1434 14.7244 44.8792 14.7244C44.6036 14.7244 44.3593 14.7884 44.1463 14.9162C43.936 15.0412 43.7713 15.2102 43.6519 15.4233C43.5326 15.6335 43.4715 15.8679 43.4687 16.1264V17.196C43.4687 17.5199 43.5284 17.7997 43.6477 18.0355C43.7698 18.2713 43.9417 18.4531 44.1633 18.581C44.3849 18.7088 44.6477 18.7727 44.9517 18.7727C45.1534 18.7727 45.338 18.7443 45.5056 18.6875C45.6732 18.6307 45.8167 18.5455 45.936 18.4318C46.0553 18.3182 46.1463 18.179 46.2088 18.0142L47.8877 18.125C47.8025 18.5284 47.6278 18.8807 47.3636 19.1818C47.1022 19.4801 46.7642 19.7131 46.3494 19.8807C45.9374 20.0455 45.4616 20.1278 44.9218 20.1278Z" fill="white"/>
<rect x="1" y="1" width="55" height="30" rx="15" stroke="#FF0000" stroke-width="2"/>
<g clip-path="url(#clip0_422_10938)">
<path d="M73 11C75.7585 11 78 13.2225 78 15.9715C78 16.6525 77.9155 17.142 77.787 17.538C77.4815 18.479 76.85 19.2705 76.136 19.938C75.645 20.397 74.9165 20.327 74.479 19.892C73.858 19.2745 73.688 18.316 74.3615 17.647L74.8215 17.1895C75.0513 16.9613 75.3606 16.8311 75.6845 16.8264C76.0083 16.8218 76.3213 16.943 76.5575 17.1645C76.696 17.2945 76.7645 17.4495 76.836 17.2295C76.9265 16.9495 77 16.566 77 15.9715C77 13.781 75.212 12 73 12C70.788 12 69 13.781 69 15.9715C69 16.5665 69.0735 16.949 69.164 17.2295C69.2355 17.4495 69.304 17.2945 69.4425 17.1645C69.6787 16.943 69.9917 16.8218 70.3155 16.8264C70.6394 16.8311 70.9487 16.9613 71.1785 17.1895L71.6385 17.647C72.312 18.316 72.142 19.2745 71.521 19.892C71.0835 20.327 70.355 20.397 69.864 19.9385C69.145 19.2665 68.5205 18.4845 68.213 17.5385C68.085 17.1415 68 16.652 68 15.971C68 13.2225 70.2415 11 73 11ZM75.526 17.899C75.237 18.186 74.631 18.6325 75.066 19.0655C75.162 19.1605 75.3115 19.3395 75.453 19.2075C75.772 18.9095 76.0845 18.5725 76.2945 18.289C76.1295 18.134 75.7815 17.6455 75.526 17.899ZM70.474 17.899C70.219 17.6455 69.8705 18.134 69.7055 18.289C69.9155 18.5725 70.228 18.909 70.547 19.2075C70.688 19.3395 70.838 19.161 70.934 19.0655C71.369 18.6325 70.763 18.186 70.474 17.899Z" fill="white"/>
</g>
<path d="M84.6179 18.3807V17.1236L88.321 11.2727H89.3693V13.0625H88.7301L86.2372 17.0128V17.081H91.4062V18.3807H84.6179ZM88.7812 20V17.9972L88.7983 17.4347V11.2727H90.2898V20H88.7812Z" fill="white"/>
<defs>
<clipPath id="clip0_422_10938">
<rect width="12" height="12" fill="white" transform="translate(67 10)"/>
</clipPath>
</defs>
</svg>
