<svg width="30" height="30" viewBox="0 0 30 30" fill="none" xmlns="http://www.w3.org/2000/svg">
<path d="M25 21.2048C23.7333 21.2048 22.6 21.6566 21.7333 22.3645L9.85 16.1145C9.93333 15.7681 10 15.4217 10 15.0602C10 14.6988 9.93333 14.3524 9.85 14.006L21.6 7.81627C22.5 8.56928 23.6833 9.03614 25 9.03614C27.7667 9.03614 30 7.01807 30 4.51807C30 2.01807 27.7667 0 25 0C22.2333 0 20 2.01807 20 4.51807C20 4.87952 20.0667 5.2259 20.15 5.57229L8.4 11.762C7.5 11.009 6.31667 10.5422 5 10.5422C2.23333 10.5422 0 12.5602 0 15.0602C0 17.5602 2.23333 19.5783 5 19.5783C6.31667 19.5783 7.5 19.1114 8.4 18.3584L20.2667 24.6235C20.1833 24.9398 20.1333 25.2711 20.1333 25.6024C20.1333 28.0271 22.3167 30 25 30C27.6833 30 29.8667 28.0271 29.8667 25.6024C29.8667 23.1777 27.6833 21.2048 25 21.2048ZM25 3.01205C25.9167 3.01205 26.6667 3.68976 26.6667 4.51807C26.6667 5.34639 25.9167 6.0241 25 6.0241C24.0833 6.0241 23.3333 5.34639 23.3333 4.51807C23.3333 3.68976 24.0833 3.01205 25 3.01205ZM5 16.5663C4.08333 16.5663 3.33333 15.8886 3.33333 15.0602C3.33333 14.2319 4.08333 13.5542 5 13.5542C5.91667 13.5542 6.66667 14.2319 6.66667 15.0602C6.66667 15.8886 5.91667 16.5663 5 16.5663ZM25 27.1386C24.0833 27.1386 23.3333 26.4608 23.3333 25.6325C23.3333 24.8042 24.0833 24.1265 25 24.1265C25.9167 24.1265 26.6667 24.8042 26.6667 25.6325C26.6667 26.4608 25.9167 27.1386 25 27.1386Z" fill="#FD7D05"/>
</svg>
