<svg width="75" height="60" viewBox="0 0 75 60" fill="none" xmlns="http://www.w3.org/2000/svg">
<path d="M28.5 18.6428H46.5V15.6428H28.5V18.6428ZM28.5 14.1428H46.5V11.1428H28.5V14.1428ZM28.5 9.64282H46.5V6.64282H28.5V9.64282ZM52.5 30.6428L46.5 24.6428H25.5C24.675 24.6428 23.9685 24.3488 23.3805 23.7608C22.7925 23.1728 22.499 22.4668 22.5 21.6428V3.64282C22.5 2.81782 22.794 2.11132 23.382 1.52332C23.97 0.935325 24.676 0.641825 25.5 0.642825H49.5C50.325 0.642825 51.0315 0.936825 51.6195 1.52482C52.2075 2.11282 52.501 2.81882 52.5 3.64282V30.6428ZM25.5 3.64282V21.6428H47.7375L49.5 23.4053V3.64282H25.5Z" fill="white"/>
<path d="M11.2784 48.0803H8.78977C8.74432 47.7584 8.65152 47.4724 8.51136 47.2224C8.37121 46.9686 8.19129 46.7527 7.97159 46.5746C7.75189 46.3966 7.49811 46.2602 7.21023 46.1655C6.92614 46.0709 6.61742 46.0235 6.28409 46.0235C5.68182 46.0235 5.1572 46.1731 4.71023 46.4724C4.26326 46.7678 3.91667 47.1996 3.67045 47.7678C3.42424 48.3322 3.30114 49.0178 3.30114 49.8246C3.30114 50.6542 3.42424 51.3512 3.67045 51.9155C3.92045 52.4799 4.26894 52.9061 4.71591 53.194C5.16288 53.4818 5.67992 53.6258 6.26705 53.6258C6.59659 53.6258 6.90152 53.5822 7.18182 53.4951C7.46591 53.408 7.7178 53.2811 7.9375 53.1144C8.1572 52.944 8.33902 52.7375 8.48295 52.4951C8.63068 52.2527 8.73295 51.9762 8.78977 51.6655L11.2784 51.6769C11.214 52.211 11.053 52.7262 10.7955 53.2224C10.5417 53.7148 10.1989 54.1561 9.76705 54.5462C9.33902 54.9326 8.82765 55.2394 8.23295 55.4667C7.64205 55.6902 6.97348 55.8019 6.22727 55.8019C5.18939 55.8019 4.26136 55.5671 3.44318 55.0974C2.62879 54.6277 1.98485 53.9477 1.51136 53.0576C1.04167 52.1674 0.806818 51.0898 0.806818 49.8246C0.806818 48.5557 1.04545 47.4762 1.52273 46.586C2 45.6959 2.64773 45.0178 3.46591 44.5519C4.28409 44.0822 5.20455 43.8474 6.22727 43.8474C6.90152 43.8474 7.52652 43.9421 8.10227 44.1315C8.68182 44.3209 9.19508 44.5974 9.64205 44.961C10.089 45.3209 10.4527 45.7621 10.733 46.2849C11.017 46.8076 11.1989 47.4061 11.2784 48.0803ZM16.6363 55.8133C15.7538 55.8133 14.9905 55.6258 14.3466 55.2508C13.7064 54.872 13.2121 54.3455 12.8636 53.6712C12.5151 52.9932 12.3409 52.2072 12.3409 51.3133C12.3409 50.4118 12.5151 49.6239 12.8636 48.9496C13.2121 48.2716 13.7064 47.7451 14.3466 47.3701C14.9905 46.9913 15.7538 46.8019 16.6363 46.8019C17.5189 46.8019 18.2803 46.9913 18.9204 47.3701C19.5644 47.7451 20.0606 48.2716 20.4091 48.9496C20.7576 49.6239 20.9318 50.4118 20.9318 51.3133C20.9318 52.2072 20.7576 52.9932 20.4091 53.6712C20.0606 54.3455 19.5644 54.872 18.9204 55.2508C18.2803 55.6258 17.5189 55.8133 16.6363 55.8133ZM16.6477 53.9383C17.0492 53.9383 17.3844 53.8246 17.6534 53.5974C17.9223 53.3663 18.125 53.0519 18.2613 52.6542C18.4015 52.2565 18.4716 51.8038 18.4716 51.2962C18.4716 50.7887 18.4015 50.336 18.2613 49.9383C18.125 49.5405 17.9223 49.2262 17.6534 48.9951C17.3844 48.764 17.0492 48.6485 16.6477 48.6485C16.2424 48.6485 15.9015 48.764 15.625 48.9951C15.3523 49.2262 15.1458 49.5405 15.0057 49.9383C14.8693 50.336 14.8011 50.7887 14.8011 51.2962C14.8011 51.8038 14.8693 52.2565 15.0057 52.6542C15.1458 53.0519 15.3523 53.3663 15.625 53.5974C15.9015 53.8246 16.2424 53.9383 16.6477 53.9383ZM22.2017 55.6428V46.9155H24.5085V48.4553H24.6108C24.7926 47.944 25.0956 47.5405 25.5198 47.2451C25.9441 46.9496 26.4517 46.8019 27.0426 46.8019C27.6411 46.8019 28.1505 46.9515 28.571 47.2508C28.9914 47.5462 29.2717 47.9477 29.4119 48.4553H29.5028C29.6808 47.9553 30.0028 47.5557 30.4687 47.2565C30.9384 46.9534 31.4933 46.8019 32.1335 46.8019C32.9479 46.8019 33.6089 47.0614 34.1164 47.5803C34.6278 48.0955 34.8835 48.8265 34.8835 49.7735V55.6428H32.4687V50.2508C32.4687 49.7659 32.3399 49.4023 32.0823 49.1599C31.8248 48.9174 31.5028 48.7962 31.1164 48.7962C30.677 48.7962 30.3342 48.9364 30.088 49.2167C29.8418 49.4932 29.7187 49.8587 29.7187 50.3133V55.6428H27.3721V50.1996C27.3721 49.7716 27.249 49.4307 27.0028 49.1769C26.7604 48.9231 26.4403 48.7962 26.0426 48.7962C25.7736 48.7962 25.5312 48.8644 25.3153 49.0008C25.1032 49.1334 24.9346 49.3209 24.8096 49.5633C24.6846 49.8019 24.6221 50.0822 24.6221 50.4042V55.6428H22.2017ZM36.4914 55.6428V46.9155H38.7982V48.4553H38.9005C39.0823 47.944 39.3853 47.5405 39.8096 47.2451C40.2338 46.9496 40.7414 46.8019 41.3323 46.8019C41.9308 46.8019 42.4403 46.9515 42.8607 47.2508C43.2812 47.5462 43.5615 47.9477 43.7016 48.4553H43.7925C43.9706 47.9553 44.2925 47.5557 44.7585 47.2565C45.2282 46.9534 45.7831 46.8019 46.4232 46.8019C47.2376 46.8019 47.8986 47.0614 48.4062 47.5803C48.9175 48.0955 49.1732 48.8265 49.1732 49.7735V55.6428H46.7585V50.2508C46.7585 49.7659 46.6297 49.4023 46.3721 49.1599C46.1145 48.9174 45.7925 48.7962 45.4062 48.7962C44.9668 48.7962 44.624 48.9364 44.3778 49.2167C44.1316 49.4932 44.0085 49.8587 44.0085 50.3133V55.6428H41.6619V50.1996C41.6619 49.7716 41.5388 49.4307 41.2925 49.1769C41.0501 48.9231 40.73 48.7962 40.3323 48.7962C40.0634 48.7962 39.821 48.8644 39.605 49.0008C39.3929 49.1334 39.2244 49.3209 39.0994 49.5633C38.9744 49.8019 38.9119 50.0822 38.9119 50.4042V55.6428H36.4914ZM54.7584 55.8133C53.8607 55.8133 53.088 55.6315 52.4403 55.2678C51.7963 54.9004 51.3001 54.3815 50.9516 53.711C50.6031 53.0368 50.4289 52.2394 50.4289 51.319C50.4289 50.4212 50.6031 49.6334 50.9516 48.9553C51.3001 48.2773 51.7906 47.7489 52.4232 47.3701C53.0596 46.9913 53.8058 46.8019 54.6618 46.8019C55.2376 46.8019 55.7736 46.8947 56.2698 47.0803C56.7698 47.2621 57.2054 47.5368 57.5766 47.9042C57.9516 48.2716 58.2433 48.7337 58.4516 49.2905C58.6599 49.8436 58.7641 50.4913 58.7641 51.2337V51.8985H51.3948V50.3985H56.4857C56.4857 50.05 56.4099 49.7413 56.2584 49.4724C56.1069 49.2034 55.8967 48.9932 55.6278 48.8417C55.3626 48.6864 55.0539 48.6087 54.7016 48.6087C54.3342 48.6087 54.0084 48.694 53.7243 48.8644C53.444 49.0311 53.2243 49.2565 53.0653 49.5405C52.9062 49.8209 52.8247 50.1334 52.8209 50.478V51.9042C52.8209 52.336 52.9005 52.7091 53.0596 53.0235C53.2224 53.3379 53.4516 53.5803 53.7471 53.7508C54.0425 53.9212 54.3929 54.0065 54.7982 54.0065C55.0671 54.0065 55.3134 53.9686 55.5368 53.8928C55.7603 53.8171 55.9516 53.7034 56.1107 53.5519C56.2698 53.4004 56.391 53.2148 56.4743 52.9951L58.713 53.1428C58.5993 53.6807 58.3664 54.1504 58.0141 54.5519C57.6656 54.9496 57.2149 55.2602 56.6618 55.4837C56.1126 55.7034 55.4781 55.8133 54.7584 55.8133ZM62.4601 50.5974V55.6428H60.0397V46.9155H62.3465V48.4553H62.4487C62.6419 47.9477 62.9658 47.5462 63.4203 47.2508C63.8749 46.9515 64.426 46.8019 65.0737 46.8019C65.6798 46.8019 66.2082 46.9345 66.659 47.1996C67.1097 47.4648 67.4601 47.8436 67.7101 48.336C67.9601 48.8246 68.0851 49.408 68.0851 50.086V55.6428H65.6647V50.5178C65.6684 49.9837 65.5321 49.5671 65.2556 49.2678C64.9791 48.9648 64.5984 48.8133 64.1135 48.8133C63.7878 48.8133 63.4999 48.8834 63.2499 49.0235C63.0037 49.1637 62.8105 49.3682 62.6703 49.6371C62.534 49.9023 62.4639 50.2224 62.4601 50.5974ZM74.3308 46.9155V48.7337H69.0752V46.9155H74.3308ZM70.2683 44.8246H72.6888V52.961C72.6888 53.1845 72.7229 53.3587 72.7911 53.4837C72.8592 53.6049 72.9539 53.6902 73.0752 53.7394C73.2002 53.7887 73.3441 53.8133 73.507 53.8133C73.6206 53.8133 73.7342 53.8038 73.8479 53.7849C73.9615 53.7621 74.0486 53.7451 74.1092 53.7337L74.4899 55.5349C74.3687 55.5727 74.1983 55.6163 73.9786 55.6655C73.7589 55.7186 73.4918 55.7508 73.1774 55.7621C72.5941 55.7849 72.0827 55.7072 71.6433 55.5292C71.2077 55.3512 70.8687 55.0746 70.6263 54.6996C70.3839 54.3246 70.2645 53.8512 70.2683 53.2792V44.8246Z" fill="white"/>
</svg>
