<svg width="77" height="60" viewBox="0 0 77 60" fill="none" xmlns="http://www.w3.org/2000/svg">
<path d="M27.25 30.6428C26.2188 30.6428 25.3356 30.2753 24.6006 29.5403C23.8656 28.8053 23.4988 27.9228 23.5 26.8928V21.2678H27.25V26.8928H49.75V21.2678H53.5V26.8928C53.5 27.9241 53.1325 28.8072 52.3975 29.5422C51.6625 30.2772 50.78 30.6441 49.75 30.6428H27.25ZM38.5 23.1428L29.125 13.7678L31.75 11.0491L36.625 15.9241V0.642822H40.375V15.9241L45.25 11.0491L47.875 13.7678L38.5 23.1428Z" fill="white"/>
<path d="M5.13636 55.6428H1.01136V44.0065H5.17045C6.34091 44.0065 7.34848 44.2394 8.19318 44.7053C9.03788 45.1674 9.6875 45.8322 10.142 46.6996C10.6004 47.5671 10.8295 48.6049 10.8295 49.8133C10.8295 51.0254 10.6004 52.0671 10.142 52.9383C9.6875 53.8095 9.03409 54.478 8.18182 54.944C7.33333 55.4099 6.31818 55.6428 5.13636 55.6428ZM3.47159 53.5349H5.03409C5.76136 53.5349 6.37311 53.4061 6.86932 53.1485C7.36932 52.8871 7.74432 52.4837 7.99432 51.9383C8.24811 51.389 8.375 50.6807 8.375 49.8133C8.375 48.9534 8.24811 48.2508 7.99432 47.7053C7.74432 47.1599 7.37121 46.7584 6.875 46.5008C6.37879 46.2432 5.76705 46.1144 5.03977 46.1144H3.47159V53.5349ZM16.2457 55.8133C15.3631 55.8133 14.5999 55.6258 13.9559 55.2508C13.3158 54.872 12.8215 54.3455 12.473 53.6712C12.1245 52.9932 11.9503 52.2072 11.9503 51.3133C11.9503 50.4118 12.1245 49.6239 12.473 48.9496C12.8215 48.2716 13.3158 47.7451 13.9559 47.3701C14.5999 46.9913 15.3631 46.8019 16.2457 46.8019C17.1283 46.8019 17.8897 46.9913 18.5298 47.3701C19.1737 47.7451 19.67 48.2716 20.0184 48.9496C20.3669 49.6239 20.5412 50.4118 20.5412 51.3133C20.5412 52.2072 20.3669 52.9932 20.0184 53.6712C19.67 54.3455 19.1737 54.872 18.5298 55.2508C17.8897 55.6258 17.1283 55.8133 16.2457 55.8133ZM16.2571 53.9383C16.6586 53.9383 16.9938 53.8246 17.2628 53.5974C17.5317 53.3663 17.7344 53.0519 17.8707 52.6542C18.0109 52.2565 18.0809 51.8038 18.0809 51.2962C18.0809 50.7887 18.0109 50.336 17.8707 49.9383C17.7344 49.5405 17.5317 49.2262 17.2628 48.9951C16.9938 48.764 16.6586 48.6485 16.2571 48.6485C15.8518 48.6485 15.5109 48.764 15.2344 48.9951C14.9616 49.2262 14.7552 49.5405 14.615 49.9383C14.4787 50.336 14.4105 50.7887 14.4105 51.2962C14.4105 51.8038 14.4787 52.2565 14.615 52.6542C14.7552 53.0519 14.9616 53.3663 15.2344 53.5974C15.5109 53.8246 15.8518 53.9383 16.2571 53.9383ZM23.3139 55.6428L20.9389 46.9155H23.3877L24.74 52.7792H24.8196L26.2286 46.9155H28.6321L30.0639 52.7451H30.1377L31.4673 46.9155H33.9105L31.5411 55.6428H28.9786L27.4786 50.1542H27.3707L25.8707 55.6428H23.3139ZM37.3181 50.5974V55.6428H34.8977V46.9155H37.2045V48.4553H37.3068C37.4999 47.9477 37.8238 47.5462 38.2783 47.2508C38.7329 46.9515 39.284 46.8019 39.9318 46.8019C40.5378 46.8019 41.0662 46.9345 41.517 47.1996C41.9677 47.4648 42.3181 47.8436 42.5681 48.336C42.8181 48.8246 42.9431 49.408 42.9431 50.086V55.6428H40.5227V50.5178C40.5264 49.9837 40.3901 49.5671 40.1136 49.2678C39.8371 48.9648 39.4564 48.8133 38.9715 48.8133C38.6458 48.8133 38.3579 48.8834 38.1079 49.0235C37.8617 49.1637 37.6685 49.3682 37.5283 49.6371C37.392 49.9023 37.3219 50.2224 37.3181 50.5974ZM46.9672 44.0065V55.6428H44.5468V44.0065H46.9672ZM52.5453 55.8133C51.6628 55.8133 50.8995 55.6258 50.2556 55.2508C49.6154 54.872 49.1211 54.3455 48.7726 53.6712C48.4241 52.9932 48.2499 52.2072 48.2499 51.3133C48.2499 50.4118 48.4241 49.6239 48.7726 48.9496C49.1211 48.2716 49.6154 47.7451 50.2556 47.3701C50.8995 46.9913 51.6628 46.8019 52.5453 46.8019C53.4279 46.8019 54.1893 46.9913 54.8294 47.3701C55.4734 47.7451 55.9696 48.2716 56.3181 48.9496C56.6666 49.6239 56.8408 50.4118 56.8408 51.3133C56.8408 52.2072 56.6666 52.9932 56.3181 53.6712C55.9696 54.3455 55.4734 54.872 54.8294 55.2508C54.1893 55.6258 53.4279 55.8133 52.5453 55.8133ZM52.5567 53.9383C52.9582 53.9383 53.2934 53.8246 53.5624 53.5974C53.8313 53.3663 54.034 53.0519 54.1703 52.6542C54.3105 52.2565 54.3806 51.8038 54.3806 51.2962C54.3806 50.7887 54.3105 50.336 54.1703 49.9383C54.034 49.5405 53.8313 49.2262 53.5624 48.9951C53.2934 48.764 52.9582 48.6485 52.5567 48.6485C52.1514 48.6485 51.8105 48.764 51.534 48.9951C51.2612 49.2262 51.0548 49.5405 50.9147 49.9383C50.7783 50.336 50.7101 50.7887 50.7101 51.2962C50.7101 51.8038 50.7783 52.2565 50.9147 52.6542C51.0548 53.0519 51.2612 53.3663 51.534 53.5974C51.8105 53.8246 52.1514 53.9383 52.5567 53.9383ZM60.5993 55.8076C60.0425 55.8076 59.5463 55.711 59.1107 55.5178C58.6751 55.3209 58.3304 55.0311 58.0766 54.6485C57.8266 54.2621 57.7016 53.7811 57.7016 53.2053C57.7016 52.7205 57.7906 52.3133 57.9686 51.9837C58.1466 51.6542 58.3891 51.389 58.6959 51.1883C59.0027 50.9875 59.3512 50.836 59.7413 50.7337C60.1353 50.6315 60.5482 50.5595 60.98 50.5178C61.4876 50.4648 61.8966 50.4155 62.2072 50.3701C62.5179 50.3209 62.7432 50.2489 62.8834 50.1542C63.0235 50.0595 63.0936 49.9193 63.0936 49.7337V49.6996C63.0936 49.3398 62.98 49.0614 62.7527 48.8644C62.5292 48.6674 62.211 48.569 61.7982 48.569C61.3626 48.569 61.016 48.6655 60.7584 48.8587C60.5008 49.0481 60.3304 49.2868 60.247 49.5746L58.0084 49.3928C58.122 48.8625 58.3455 48.4042 58.6788 48.0178C59.0122 47.6277 59.4421 47.3284 59.9686 47.1201C60.4989 46.908 61.1126 46.8019 61.8095 46.8019C62.2944 46.8019 62.7584 46.8587 63.2016 46.9724C63.6485 47.086 64.0444 47.2621 64.3891 47.5008C64.7376 47.7394 65.0122 48.0462 65.2129 48.4212C65.4137 48.7924 65.5141 49.2375 65.5141 49.7565V55.6428H63.2186V54.4326H63.1504C63.0103 54.7053 62.8228 54.9459 62.5879 55.1542C62.3531 55.3587 62.0709 55.5197 61.7413 55.6371C61.4118 55.7508 61.0311 55.8076 60.5993 55.8076ZM61.2925 54.1371C61.6485 54.1371 61.9629 54.0671 62.2357 53.9269C62.5084 53.783 62.7224 53.5898 62.8777 53.3474C63.033 53.1049 63.1107 52.8303 63.1107 52.5235V51.5974C63.0349 51.6466 62.9307 51.6921 62.7982 51.7337C62.6694 51.7716 62.5235 51.8076 62.3607 51.8417C62.1978 51.872 62.0349 51.9004 61.872 51.9269C61.7091 51.9496 61.5614 51.9705 61.4288 51.9894C61.1447 52.0311 60.8966 52.0974 60.6845 52.1883C60.4724 52.2792 60.3076 52.4023 60.1902 52.5576C60.0728 52.7091 60.0141 52.8985 60.0141 53.1258C60.0141 53.4553 60.1334 53.7072 60.372 53.8815C60.6144 54.0519 60.9213 54.1371 61.2925 54.1371ZM70.3038 55.7849C69.6409 55.7849 69.0406 55.6144 68.5027 55.2735C67.9686 54.9288 67.5444 54.4231 67.23 53.7565C66.9194 53.086 66.764 52.264 66.764 51.2905C66.764 50.2905 66.925 49.4591 67.247 48.7962C67.569 48.1296 67.997 47.6315 68.5311 47.3019C69.069 46.9686 69.658 46.8019 70.2981 46.8019C70.7868 46.8019 71.194 46.8852 71.5197 47.0519C71.8493 47.2148 72.1144 47.4193 72.3152 47.6655C72.5197 47.908 72.675 48.1466 72.7811 48.3815H72.855V44.0065H75.2697V55.6428H72.8834V54.2451H72.7811C72.6675 54.4875 72.5065 54.728 72.2981 54.9667C72.0936 55.2015 71.8265 55.3966 71.497 55.5519C71.1712 55.7072 70.7735 55.7849 70.3038 55.7849ZM71.0709 53.8587C71.461 53.8587 71.7906 53.7527 72.0595 53.5405C72.3322 53.3246 72.5406 53.0235 72.6845 52.6371C72.8322 52.2508 72.9061 51.7981 72.9061 51.2792C72.9061 50.7602 72.8341 50.3095 72.6902 49.9269C72.5462 49.5443 72.3379 49.2489 72.0652 49.0405C71.7925 48.8322 71.461 48.728 71.0709 48.728C70.6731 48.728 70.3379 48.836 70.0652 49.0519C69.7925 49.2678 69.586 49.5671 69.4459 49.9496C69.3057 50.3322 69.2356 50.7754 69.2356 51.2792C69.2356 51.7868 69.3057 52.2356 69.4459 52.6258C69.5898 53.0121 69.7962 53.3152 70.0652 53.5349C70.3379 53.7508 70.6731 53.8587 71.0709 53.8587Z" fill="white"/>
</svg>
