<svg width="32" height="60" viewBox="0 0 32 60" fill="none" xmlns="http://www.w3.org/2000/svg">
<path d="M30.0213 16.4346C30.6513 15.6265 31 14.6363 31 13.6061C31 11.9716 30.0588 10.4244 28.5438 9.56166C28.1537 9.33958 27.7097 9.2227 27.2575 9.22311H18.265L18.49 4.74914C18.5425 3.66796 18.1488 2.64139 17.3838 1.85872C17.0083 1.47295 16.5554 1.16601 16.0529 0.956883C15.5505 0.747754 15.0092 0.640875 14.4625 0.642849C12.5125 0.642849 10.7875 1.91697 10.27 3.74077L7.04875 15.0622H2.2C1.53625 15.0622 1 15.5828 1 16.2271V29.4779C1 30.1223 1.53625 30.6428 2.2 30.6428H24.7488C25.0938 30.6428 25.4312 30.5773 25.7425 30.4462C27.5275 29.7073 28.6788 28.0145 28.6788 26.1361C28.6788 25.6774 28.6113 25.226 28.4763 24.7892C29.1063 23.981 29.455 22.9908 29.455 21.9606C29.455 21.5019 29.3875 21.0505 29.2525 20.6137C29.8825 19.8056 30.2313 18.8154 30.2313 17.7852C30.2238 17.3265 30.1563 16.8714 30.0213 16.4346ZM3.7 28.0218V17.6832H6.7375V28.0218H3.7ZM27.565 15.1714L26.7438 15.8631L27.265 16.7877C27.4367 17.0923 27.5258 17.4343 27.5238 17.7815C27.5238 18.3822 27.2538 18.9537 26.7888 19.3469L25.9675 20.0385L26.4888 20.9632C26.6605 21.2678 26.7495 21.6098 26.7475 21.957C26.7475 22.5576 26.4775 23.1292 26.0125 23.5223L25.1912 24.214L25.7125 25.1386C25.8842 25.4432 25.9733 25.7852 25.9713 26.1325C25.9713 26.9479 25.4762 27.6832 24.7113 28.0181H9.1375V17.5668L12.8688 4.44336C12.965 4.10699 13.1715 3.81024 13.4571 3.59806C13.7426 3.38588 14.0917 3.26984 14.4513 3.26753C14.7363 3.26753 15.0175 3.34762 15.2425 3.51143C15.6138 3.78081 15.8125 4.18853 15.79 4.62173L15.43 11.8441H27.22C27.8875 12.2409 28.3 12.9108 28.3 13.6061C28.3 14.2067 28.03 14.7746 27.565 15.1714Z" fill="white"/>
<path d="M1.01136 55.6428V44.0065H3.47159V53.6144H8.46023V55.6428H1.01136ZM9.74003 55.6428V46.9155H12.1605V55.6428H9.74003ZM10.9559 45.7905C10.5961 45.7905 10.2874 45.6712 10.0298 45.4326C9.77602 45.1902 9.64913 44.9004 9.64913 44.5633C9.64913 44.2299 9.77602 43.944 10.0298 43.7053C10.2874 43.4629 10.5961 43.3417 10.9559 43.3417C11.3158 43.3417 11.6226 43.4629 11.8764 43.7053C12.134 43.944 12.2628 44.2299 12.2628 44.5633C12.2628 44.9004 12.134 45.1902 11.8764 45.4326C11.6226 45.6712 11.3158 45.7905 10.9559 45.7905ZM15.9886 53.1315L15.9943 50.228H16.3465L19.142 46.9155H21.9204L18.1647 51.3019H17.5909L15.9886 53.1315ZM13.7954 55.6428V44.0065H16.2159V55.6428H13.7954ZM19.25 55.6428L16.6818 51.8417L18.2954 50.1315L22.0852 55.6428H19.25ZM26.4218 55.8133C25.5241 55.8133 24.7514 55.6315 24.1036 55.2678C23.4597 54.9004 22.9635 54.3815 22.615 53.711C22.2665 53.0368 22.0923 52.2394 22.0923 51.319C22.0923 50.4212 22.2665 49.6334 22.615 48.9553C22.9635 48.2773 23.454 47.7489 24.0866 47.3701C24.7229 46.9913 25.4692 46.8019 26.3252 46.8019C26.901 46.8019 27.437 46.8947 27.9332 47.0803C28.4332 47.2621 28.8688 47.5368 29.24 47.9042C29.615 48.2716 29.9067 48.7337 30.115 49.2905C30.3233 49.8436 30.4275 50.4913 30.4275 51.2337V51.8985H23.0582V50.3985H28.1491C28.1491 50.05 28.0733 49.7413 27.9218 49.4724C27.7703 49.2034 27.5601 48.9932 27.2911 48.8417C27.026 48.6864 26.7173 48.6087 26.365 48.6087C25.9976 48.6087 25.6718 48.694 25.3877 48.8644C25.1074 49.0311 24.8877 49.2565 24.7286 49.5405C24.5695 49.8209 24.4881 50.1334 24.4843 50.478V51.9042C24.4843 52.336 24.5639 52.7091 24.7229 53.0235C24.8858 53.3379 25.115 53.5803 25.4104 53.7508C25.7059 53.9212 26.0563 54.0065 26.4616 54.0065C26.7305 54.0065 26.9767 53.9686 27.2002 53.8928C27.4237 53.8171 27.615 53.7034 27.7741 53.5519C27.9332 53.4004 28.0544 53.2148 28.1377 52.9951L30.3764 53.1428C30.2627 53.6807 30.0298 54.1504 29.6775 54.5519C29.329 54.9496 28.8782 55.2602 28.3252 55.4837C27.776 55.7034 27.1415 55.8133 26.4218 55.8133Z" fill="white"/>
</svg>
