<svg width="38" height="61" viewBox="0 0 38 61" fill="none" xmlns="http://www.w3.org/2000/svg">
<path d="M4 5.05425V29.9338C4 31.4519 6.01937 32.2143 7.20062 31.1397L19 20.4057L30.7994 31.1397C31.9806 32.2143 34 31.4536 34 29.9338V5.05425C34 4.14948 33.6049 3.28177 32.9016 2.64201C32.1984 2.00224 31.2446 1.64282 30.25 1.64282H7.75C6.75544 1.64282 5.80161 2.00224 5.09835 2.64201C4.39509 3.28177 4 4.14948 4 5.05425Z" stroke="white" stroke-width="3" stroke-linecap="round" stroke-linejoin="round"/>
<path d="M7.32386 48.353C7.27841 47.8947 7.08333 47.5387 6.73864 47.2849C6.39394 47.0311 5.92614 46.9042 5.33523 46.9042C4.93371 46.9042 4.5947 46.961 4.31818 47.0746C4.04167 47.1845 3.82955 47.3379 3.68182 47.5349C3.53788 47.7318 3.46591 47.9553 3.46591 48.2053C3.45833 48.4137 3.50189 48.5955 3.59659 48.7508C3.69508 48.9061 3.82955 49.0405 4 49.1542C4.17045 49.264 4.36742 49.3606 4.59091 49.444C4.81439 49.5235 5.05303 49.5917 5.30682 49.6485L6.35227 49.8985C6.85985 50.0121 7.32576 50.1637 7.75 50.353C8.17424 50.5424 8.54167 50.7754 8.85227 51.0519C9.16288 51.3284 9.40341 51.6542 9.57386 52.0292C9.74811 52.4042 9.83712 52.8341 9.84091 53.319C9.83712 54.0311 9.6553 54.6485 9.29545 55.1712C8.93939 55.6902 8.42424 56.0936 7.75 56.3815C7.07955 56.6655 6.27083 56.8076 5.32386 56.8076C4.38447 56.8076 3.56629 56.6637 2.86932 56.3758C2.17614 56.0879 1.63447 55.6618 1.24432 55.0974C0.857955 54.5292 0.655303 53.8265 0.636364 52.9894H3.01705C3.04356 53.3796 3.1553 53.7053 3.35227 53.9667C3.55303 54.2243 3.82008 54.4193 4.15341 54.5519C4.49053 54.6807 4.87121 54.7451 5.29545 54.7451C5.71212 54.7451 6.07386 54.6845 6.38068 54.5633C6.69129 54.4421 6.93182 54.2735 7.10227 54.0576C7.27273 53.8417 7.35795 53.5936 7.35795 53.3133C7.35795 53.0519 7.2803 52.8322 7.125 52.6542C6.97348 52.4762 6.75 52.3246 6.45455 52.1996C6.16288 52.0746 5.80492 51.961 5.38068 51.8587L4.11364 51.5405C3.13258 51.3019 2.35795 50.9288 1.78977 50.4212C1.22159 49.9137 0.939394 49.2299 0.943182 48.3701C0.939394 47.6655 1.12689 47.05 1.50568 46.5235C1.88826 45.997 2.41288 45.586 3.07955 45.2905C3.74621 44.9951 4.50379 44.8474 5.35227 44.8474C6.21591 44.8474 6.9697 44.9951 7.61364 45.2905C8.26136 45.586 8.76515 45.997 9.125 46.5235C9.48485 47.05 9.67045 47.6599 9.68182 48.353H7.32386ZM13.6349 56.8076C13.0781 56.8076 12.5819 56.711 12.1463 56.5178C11.7107 56.3209 11.366 56.0311 11.1122 55.6485C10.8622 55.2621 10.7372 54.7811 10.7372 54.2053C10.7372 53.7205 10.8262 53.3133 11.0042 52.9837C11.1823 52.6542 11.4247 52.389 11.7315 52.1883C12.0383 51.9875 12.3868 51.836 12.777 51.7337C13.1709 51.6315 13.5838 51.5595 14.0156 51.5178C14.5232 51.4648 14.9323 51.4155 15.2429 51.3701C15.5535 51.3209 15.7789 51.2489 15.919 51.1542C16.0592 51.0595 16.1292 50.9193 16.1292 50.7337V50.6996C16.1292 50.3398 16.0156 50.0614 15.7883 49.8644C15.5648 49.6674 15.2467 49.569 14.8338 49.569C14.3982 49.569 14.0516 49.6655 13.794 49.8587C13.5364 50.0481 13.366 50.2868 13.2826 50.5746L11.044 50.3928C11.1576 49.8625 11.3811 49.4042 11.7145 49.0178C12.0478 48.6277 12.4777 48.3284 13.0042 48.1201C13.5345 47.908 14.1482 47.8019 14.8451 47.8019C15.33 47.8019 15.794 47.8587 16.2372 47.9724C16.6842 48.086 17.08 48.2621 17.4247 48.5008C17.7732 48.7394 18.0478 49.0462 18.2486 49.4212C18.4493 49.7924 18.5497 50.2375 18.5497 50.7565V56.6428H16.2542V55.4326H16.1861C16.0459 55.7053 15.8584 55.9459 15.6236 56.1542C15.3887 56.3587 15.1065 56.5197 14.777 56.6371C14.4474 56.7508 14.0667 56.8076 13.6349 56.8076ZM14.3281 55.1371C14.6842 55.1371 14.9986 55.0671 15.2713 54.9269C15.544 54.783 15.758 54.5898 15.9133 54.3474C16.0686 54.1049 16.1463 53.8303 16.1463 53.5235V52.5974C16.0705 52.6466 15.9664 52.6921 15.8338 52.7337C15.705 52.7716 15.5592 52.8076 15.3963 52.8417C15.2334 52.872 15.0705 52.9004 14.9076 52.9269C14.7448 52.9496 14.597 52.9705 14.4645 52.9894C14.1804 53.0311 13.9323 53.0974 13.7201 53.1883C13.508 53.2792 13.3433 53.4023 13.2258 53.5576C13.1084 53.7091 13.0497 53.8985 13.0497 54.1258C13.0497 54.4553 13.169 54.7072 13.4076 54.8815C13.6501 55.0519 13.9569 55.1371 14.3281 55.1371ZM27.9474 47.9155L24.8963 56.6428H22.169L19.1179 47.9155H21.6747L23.4872 54.1599H23.5781L25.3849 47.9155H27.9474ZM32.5781 56.8133C31.6803 56.8133 30.9076 56.6315 30.2599 56.2678C29.6159 55.9004 29.1197 55.3815 28.7712 54.711C28.4228 54.0368 28.2485 53.2394 28.2485 52.319C28.2485 51.4212 28.4228 50.6334 28.7712 49.9553C29.1197 49.2773 29.6103 48.7489 30.2428 48.3701C30.8792 47.9913 31.6254 47.8019 32.4815 47.8019C33.0572 47.8019 33.5932 47.8947 34.0894 48.0803C34.5894 48.2621 35.025 48.5368 35.3962 48.9042C35.7712 49.2716 36.0629 49.7337 36.2712 50.2905C36.4796 50.8436 36.5837 51.4913 36.5837 52.2337V52.8985H29.2144V51.3985H34.3053C34.3053 51.05 34.2296 50.7413 34.0781 50.4724C33.9265 50.2034 33.7163 49.9932 33.4474 49.8417C33.1822 49.6864 32.8735 49.6087 32.5212 49.6087C32.1538 49.6087 31.8281 49.694 31.544 49.8644C31.2637 50.0311 31.044 50.2565 30.8849 50.5405C30.7258 50.8209 30.6443 51.1334 30.6406 51.478V52.9042C30.6406 53.336 30.7201 53.7091 30.8792 54.0235C31.0421 54.3379 31.2712 54.5803 31.5667 54.7508C31.8621 54.9212 32.2125 55.0065 32.6178 55.0065C32.8868 55.0065 33.133 54.9686 33.3565 54.8928C33.58 54.8171 33.7712 54.7034 33.9303 54.5519C34.0894 54.4004 34.2106 54.2148 34.294 53.9951L36.5326 54.1428C36.419 54.6807 36.186 55.1504 35.8337 55.5519C35.4853 55.9496 35.0345 56.2602 34.4815 56.4837C33.9322 56.7034 33.2978 56.8133 32.5781 56.8133Z" fill="white"/>
</svg>
