<svg width="45" height="60" viewBox="0 0 45 60" fill="none" xmlns="http://www.w3.org/2000/svg">
<path d="M32.5 21.8476C31.2333 21.8476 30.1 22.2994 29.2333 23.0073L17.35 16.7573C17.4333 16.4109 17.5 16.0645 17.5 15.7031C17.5 15.3416 17.4333 14.9952 17.35 14.6488L29.1 8.45909C30 9.2121 31.1833 9.67897 32.5 9.67897C35.2667 9.67897 37.5 7.66089 37.5 5.16089C37.5 2.66089 35.2667 0.642822 32.5 0.642822C29.7333 0.642822 27.5 2.66089 27.5 5.16089C27.5 5.52234 27.5667 5.86873 27.65 6.21511L15.9 12.4049C15 11.6519 13.8167 11.185 12.5 11.185C9.73333 11.185 7.5 13.2031 7.5 15.7031C7.5 18.2031 9.73333 20.2211 12.5 20.2211C13.8167 20.2211 15 19.7543 15.9 19.0013L27.7667 25.2663C27.6833 25.5826 27.6333 25.9139 27.6333 26.2452C27.6333 28.6699 29.8167 30.6428 32.5 30.6428C35.1833 30.6428 37.3667 28.6699 37.3667 26.2452C37.3667 23.8205 35.1833 21.8476 32.5 21.8476ZM32.5 3.65487C33.4167 3.65487 34.1667 4.33258 34.1667 5.16089C34.1667 5.98921 33.4167 6.66692 32.5 6.66692C31.5833 6.66692 30.8333 5.98921 30.8333 5.16089C30.8333 4.33258 31.5833 3.65487 32.5 3.65487ZM12.5 17.2091C11.5833 17.2091 10.8333 16.5314 10.8333 15.7031C10.8333 14.8748 11.5833 14.197 12.5 14.197C13.4167 14.197 14.1667 14.8748 14.1667 15.7031C14.1667 16.5314 13.4167 17.2091 12.5 17.2091ZM32.5 27.7814C31.5833 27.7814 30.8333 27.1037 30.8333 26.2754C30.8333 25.447 31.5833 24.7693 32.5 24.7693C33.4167 24.7693 34.1667 25.447 34.1667 26.2754C34.1667 27.1037 33.4167 27.7814 32.5 27.7814Z" fill="white"/>
<path d="M7.32386 47.353C7.27841 46.8947 7.08333 46.5387 6.73864 46.2849C6.39394 46.0311 5.92614 45.9042 5.33523 45.9042C4.93371 45.9042 4.5947 45.961 4.31818 46.0746C4.04167 46.1845 3.82955 46.3379 3.68182 46.5349C3.53788 46.7318 3.46591 46.9553 3.46591 47.2053C3.45833 47.4137 3.50189 47.5955 3.59659 47.7508C3.69508 47.9061 3.82955 48.0405 4 48.1542C4.17045 48.264 4.36742 48.3606 4.59091 48.444C4.81439 48.5235 5.05303 48.5917 5.30682 48.6485L6.35227 48.8985C6.85985 49.0121 7.32576 49.1637 7.75 49.353C8.17424 49.5424 8.54167 49.7754 8.85227 50.0519C9.16288 50.3284 9.40341 50.6542 9.57386 51.0292C9.74811 51.4042 9.83712 51.8341 9.84091 52.319C9.83712 53.0311 9.6553 53.6485 9.29545 54.1712C8.93939 54.6902 8.42424 55.0936 7.75 55.3815C7.07955 55.6655 6.27083 55.8076 5.32386 55.8076C4.38447 55.8076 3.56629 55.6637 2.86932 55.3758C2.17614 55.0879 1.63447 54.6618 1.24432 54.0974C0.857955 53.5292 0.655303 52.8265 0.636364 51.9894H3.01705C3.04356 52.3796 3.1553 52.7053 3.35227 52.9667C3.55303 53.2243 3.82008 53.4193 4.15341 53.5519C4.49053 53.6807 4.87121 53.7451 5.29545 53.7451C5.71212 53.7451 6.07386 53.6845 6.38068 53.5633C6.69129 53.4421 6.93182 53.2735 7.10227 53.0576C7.27273 52.8417 7.35795 52.5936 7.35795 52.3133C7.35795 52.0519 7.2803 51.8322 7.125 51.6542C6.97348 51.4762 6.75 51.3246 6.45455 51.1996C6.16288 51.0746 5.80492 50.961 5.38068 50.8587L4.11364 50.5405C3.13258 50.3019 2.35795 49.9288 1.78977 49.4212C1.22159 48.9137 0.939394 48.2299 0.943182 47.3701C0.939394 46.6655 1.12689 46.05 1.50568 45.5235C1.88826 44.997 2.41288 44.586 3.07955 44.2905C3.74621 43.9951 4.50379 43.8474 5.35227 43.8474C6.21591 43.8474 6.9697 43.9951 7.61364 44.2905C8.26136 44.586 8.76515 44.997 9.125 45.5235C9.48485 46.05 9.67045 46.6599 9.68182 47.353H7.32386ZM13.5667 50.5974V55.6428H11.1463V44.0065H13.4986V48.4553H13.6008C13.7978 47.9402 14.116 47.5368 14.5554 47.2451C14.9948 46.9496 15.5459 46.8019 16.2088 46.8019C16.8148 46.8019 17.3433 46.9345 17.794 47.1996C18.2486 47.461 18.6008 47.8379 18.8508 48.3303C19.1046 48.819 19.2296 49.4042 19.2258 50.086V55.6428H16.8054V50.5178C16.8092 49.9799 16.6728 49.5614 16.3963 49.2621C16.1236 48.9629 15.741 48.8133 15.2486 48.8133C14.919 48.8133 14.6273 48.8834 14.3736 49.0235C14.1236 49.1637 13.9266 49.3682 13.7826 49.6371C13.6425 49.9023 13.5705 50.2224 13.5667 50.5974ZM23.3153 55.8076C22.7585 55.8076 22.2623 55.711 21.8267 55.5178C21.3911 55.3209 21.0464 55.0311 20.7926 54.6485C20.5426 54.2621 20.4176 53.7811 20.4176 53.2053C20.4176 52.7205 20.5066 52.3133 20.6846 51.9837C20.8626 51.6542 21.1051 51.389 21.4119 51.1883C21.7187 50.9875 22.0672 50.836 22.4573 50.7337C22.8513 50.6315 23.2642 50.5595 23.696 50.5178C24.2036 50.4648 24.6126 50.4155 24.9233 50.3701C25.2339 50.3209 25.4592 50.2489 25.5994 50.1542C25.7395 50.0595 25.8096 49.9193 25.8096 49.7337V49.6996C25.8096 49.3398 25.696 49.0614 25.4687 48.8644C25.2452 48.6674 24.927 48.569 24.5142 48.569C24.0786 48.569 23.732 48.6655 23.4744 48.8587C23.2168 49.0481 23.0464 49.2868 22.963 49.5746L20.7244 49.3928C20.838 48.8625 21.0615 48.4042 21.3948 48.0178C21.7282 47.6277 22.1581 47.3284 22.6846 47.1201C23.2149 46.908 23.8286 46.8019 24.5255 46.8019C25.0104 46.8019 25.4744 46.8587 25.9176 46.9724C26.3645 47.086 26.7604 47.2621 27.1051 47.5008C27.4536 47.7394 27.7282 48.0462 27.9289 48.4212C28.1297 48.7924 28.2301 49.2375 28.2301 49.7565V55.6428H25.9346V54.4326H25.8664C25.7263 54.7053 25.5388 54.9459 25.3039 55.1542C25.0691 55.3587 24.7869 55.5197 24.4573 55.6371C24.1278 55.7508 23.7471 55.8076 23.3153 55.8076ZM24.0085 54.1371C24.3645 54.1371 24.6789 54.0671 24.9517 53.9269C25.2244 53.783 25.4384 53.5898 25.5937 53.3474C25.749 53.1049 25.8267 52.8303 25.8267 52.5235V51.5974C25.7509 51.6466 25.6467 51.6921 25.5142 51.7337C25.3854 51.7716 25.2395 51.8076 25.0767 51.8417C24.9138 51.872 24.7509 51.9004 24.588 51.9269C24.4251 51.9496 24.2774 51.9705 24.1448 51.9894C23.8608 52.0311 23.6126 52.0974 23.4005 52.1883C23.1884 52.2792 23.0236 52.4023 22.9062 52.5576C22.7888 52.7091 22.7301 52.8985 22.7301 53.1258C22.7301 53.4553 22.8494 53.7072 23.088 53.8815C23.3304 54.0519 23.6373 54.1371 24.0085 54.1371ZM29.8039 55.6428V46.9155H32.1505V48.4383H32.2414C32.4005 47.8966 32.6675 47.4875 33.0425 47.211C33.4175 46.9307 33.8494 46.7905 34.338 46.7905C34.4592 46.7905 34.5899 46.7981 34.73 46.8133C34.8702 46.8284 34.9933 46.8493 35.0994 46.8758V49.0235C34.9857 48.9894 34.8285 48.9591 34.6278 48.9326C34.427 48.9061 34.2433 48.8928 34.0766 48.8928C33.7206 48.8928 33.4024 48.9705 33.1221 49.1258C32.8456 49.2773 32.6259 49.4894 32.463 49.7621C32.3039 50.0349 32.2244 50.3493 32.2244 50.7053V55.6428H29.8039ZM39.6178 55.8133C38.7201 55.8133 37.9474 55.6315 37.2996 55.2678C36.6557 54.9004 36.1595 54.3815 35.811 53.711C35.4625 53.0368 35.2883 52.2394 35.2883 51.319C35.2883 50.4212 35.4625 49.6334 35.811 48.9553C36.1595 48.2773 36.65 47.7489 37.2826 47.3701C37.9189 46.9913 38.6652 46.8019 39.5212 46.8019C40.097 46.8019 40.633 46.8947 41.1292 47.0803C41.6292 47.2621 42.0648 47.5368 42.436 47.9042C42.811 48.2716 43.1027 48.7337 43.311 49.2905C43.5193 49.8436 43.6235 50.4913 43.6235 51.2337V51.8985H36.2542V50.3985H41.3451C41.3451 50.05 41.2693 49.7413 41.1178 49.4724C40.9663 49.2034 40.7561 48.9932 40.4871 48.8417C40.222 48.6864 39.9133 48.6087 39.561 48.6087C39.1936 48.6087 38.8678 48.694 38.5837 48.8644C38.3034 49.0311 38.0837 49.2565 37.9246 49.5405C37.7655 49.8209 37.6841 50.1334 37.6803 50.478V51.9042C37.6803 52.336 37.7599 52.7091 37.9189 53.0235C38.0818 53.3379 38.311 53.5803 38.6064 53.7508C38.9019 53.9212 39.2523 54.0065 39.6576 54.0065C39.9265 54.0065 40.1727 53.9686 40.3962 53.8928C40.6197 53.8171 40.811 53.7034 40.9701 53.5519C41.1292 53.4004 41.2504 53.2148 41.3337 52.9951L43.5724 53.1428C43.4587 53.6807 43.2258 54.1504 42.8735 54.5519C42.525 54.9496 42.0742 55.2602 41.5212 55.4837C40.972 55.7034 40.3375 55.8133 39.6178 55.8133Z" fill="white"/>
</svg>
