<svg width="30" height="30" viewBox="0 0 30 30" fill="none" xmlns="http://www.w3.org/2000/svg">
<path d="M16.25 2.5C14.4443 2.5 12.6563 2.85565 10.9881 3.54666C9.31988 4.23766 7.80409 5.25048 6.52728 6.52728C3.94866 9.10591 2.5 12.6033 2.5 16.25C2.5 19.8967 3.94866 23.3941 6.52728 25.9727C7.80409 27.2495 9.31988 28.2623 10.9881 28.9533C12.6563 29.6443 14.4443 30 16.25 30C19.8967 30 23.3941 28.5513 25.9727 25.9727C28.5513 23.3941 30 19.8967 30 16.25C30 14.4443 29.6443 12.6563 28.9533 10.9881C28.2623 9.31988 27.2495 7.80409 25.9727 6.52728C24.6959 5.25048 23.1801 4.23766 21.5119 3.54666C19.8437 2.85565 18.0557 2.5 16.25 2.5ZM9.47125 24.885C10.0625 23.6475 13.665 22.4375 16.25 22.4375C18.835 22.4375 22.4375 23.6475 23.0288 24.885C21.1029 26.4195 18.7125 27.2535 16.25 27.25C13.6925 27.25 11.3413 26.37 9.47125 24.885ZM24.995 22.8913C23.0288 20.4988 18.2575 19.6875 16.25 19.6875C14.2425 19.6875 9.47125 20.4988 7.505 22.8913C6.04225 20.9864 5.24954 18.6517 5.25 16.25C5.25 10.1863 10.1863 5.25 16.25 5.25C22.3137 5.25 27.25 10.1863 27.25 16.25C27.25 18.7525 26.3975 21.0625 24.995 22.8913ZM16.25 8C13.5825 8 11.4375 10.145 11.4375 12.8125C11.4375 15.48 13.5825 17.625 16.25 17.625C18.9175 17.625 21.0625 15.48 21.0625 12.8125C21.0625 10.145 18.9175 8 16.25 8ZM16.25 14.875C15.703 14.875 15.1784 14.6577 14.7916 14.2709C14.4048 13.8841 14.1875 13.3595 14.1875 12.8125C14.1875 12.2655 14.4048 11.7409 14.7916 11.3541C15.1784 10.9673 15.703 10.75 16.25 10.75C16.797 10.75 17.3216 10.9673 17.7084 11.3541C18.0952 11.7409 18.3125 12.2655 18.3125 12.8125C18.3125 13.3595 18.0952 13.8841 17.7084 14.2709C17.3216 14.6577 16.797 14.875 16.25 14.875Z" fill="#FAFAFA"/>
</svg>
