<svg width="36" height="36" viewBox="0 0 36 36" fill="none" xmlns="http://www.w3.org/2000/svg">
<path d="M28.5 11.25C28.925 11.25 29.2815 11.106 29.5695 10.818C29.8575 10.53 30.001 10.174 30 9.75C30 9.325 29.856 8.9685 29.568 8.6805C29.28 8.3925 28.924 8.249 28.5 8.25C28.075 8.25 27.7185 8.394 27.4305 8.682C27.1425 8.97 26.999 9.326 27 9.75C27 10.175 27.144 10.5315 27.432 10.8195C27.72 11.1075 28.076 11.251 28.5 11.25ZM22.5 11.25C22.925 11.25 23.2815 11.106 23.5695 10.818C23.8575 10.53 24.001 10.174 24 9.75C24 9.325 23.856 8.9685 23.568 8.6805C23.28 8.3925 22.924 8.249 22.5 8.25C22.075 8.25 21.7185 8.394 21.4305 8.682C21.1425 8.97 20.999 9.326 21 9.75C21 10.175 21.144 10.5315 21.432 10.8195C21.72 11.1075 22.076 11.251 22.5 11.25ZM21.75 16.35H29.25C29.25 15.475 28.8685 14.781 28.1055 14.268C27.3425 13.755 26.474 13.499 25.5 13.5C24.525 13.5 23.656 13.7565 22.893 14.2695C22.13 14.7825 21.749 15.476 21.75 16.35ZM10.5 33C8 33 5.875 32.125 4.125 30.375C2.375 28.625 1.5 26.5 1.5 24V13.5H19.5V24C19.5 26.5 18.625 28.625 16.875 30.375C15.125 32.125 13 33 10.5 33ZM10.5 30C12.15 30 13.5625 29.4125 14.7375 28.2375C15.9125 27.0625 16.5 25.65 16.5 24V16.5H4.5V24C4.5 25.65 5.0875 27.0625 6.2625 28.2375C7.4375 29.4125 8.85 30 10.5 30ZM25.5 22.5C24.85 22.5 24.206 22.431 23.568 22.293C22.93 22.155 22.324 21.949 21.75 21.675V18.15C22.3 18.575 22.894 18.9065 23.532 19.1445C24.17 19.3825 24.826 19.501 25.5 19.5C27.15 19.5 28.5625 18.9125 29.7375 17.7375C30.9125 16.5625 31.5 15.15 31.5 13.5V6H19.5V11.25H16.5V3H34.5V13.5C34.5 16 33.625 18.125 31.875 19.875C30.125 21.625 28 22.5 25.5 22.5ZM7.5 21.75C7.925 21.75 8.2815 21.606 8.5695 21.318C8.8575 21.03 9.001 20.674 9 20.25C9 19.825 8.856 19.4685 8.568 19.1805C8.28 18.8925 7.924 18.749 7.5 18.75C7.075 18.75 6.7185 18.894 6.4305 19.182C6.1425 19.47 5.999 19.826 6 20.25C6 20.675 6.144 21.0315 6.432 21.3195C6.72 21.6075 7.076 21.751 7.5 21.75ZM13.5 21.75C13.925 21.75 14.2815 21.606 14.5695 21.318C14.8575 21.03 15.001 20.674 15 20.25C15 19.825 14.856 19.4685 14.568 19.1805C14.28 18.8925 13.924 18.749 13.5 18.75C13.075 18.75 12.7185 18.894 12.4305 19.182C12.1425 19.47 11.999 19.826 12 20.25C12 20.675 12.144 21.0315 12.432 21.3195C12.72 21.6075 13.076 21.751 13.5 21.75ZM10.5 26.85C11.475 26.85 12.344 26.5935 13.107 26.0805C13.87 25.5675 14.251 24.874 14.25 24H6.75C6.75 24.875 7.1315 25.569 7.8945 26.082C8.6575 26.595 9.526 26.851 10.5 26.85Z" fill="black"/>
</svg>
