<svg width="36" height="36" viewBox="0 0 36 36" fill="none" xmlns="http://www.w3.org/2000/svg">
<path d="M15.75 16.3125C15.75 16.6463 15.651 16.9725 15.4656 17.25C15.2802 17.5275 15.0166 17.7438 14.7083 17.8715C14.3999 17.9993 14.0606 18.0327 13.7333 17.9676C13.4059 17.9025 13.1053 17.7417 12.8693 17.5057C12.6333 17.2697 12.4725 16.9691 12.4074 16.6417C12.3423 16.3144 12.3757 15.9751 12.5035 15.6667C12.6312 15.3584 12.8475 15.0948 13.125 14.9094C13.4025 14.724 13.7287 14.625 14.0625 14.625C14.5101 14.625 14.9393 14.8028 15.2557 15.1193C15.5722 15.4357 15.75 15.8649 15.75 16.3125ZM21.9375 14.625C21.6037 14.625 21.2775 14.724 21 14.9094C20.7225 15.0948 20.5062 15.3584 20.3785 15.6667C20.2507 15.9751 20.2173 16.3144 20.2824 16.6417C20.3475 16.9691 20.5083 17.2697 20.7443 17.5057C20.9803 17.7417 21.2809 17.9025 21.6083 17.9676C21.9356 18.0327 22.2749 17.9993 22.5833 17.8715C22.8916 17.7438 23.1552 17.5275 23.3406 17.25C23.526 16.9725 23.625 16.6463 23.625 16.3125C23.625 15.8649 23.4472 15.4357 23.1307 15.1193C22.8143 14.8028 22.3851 14.625 21.9375 14.625ZM31.5 16.875V30.375C31.5 30.588 31.4396 30.7967 31.3257 30.9768C31.2118 31.1568 31.0491 31.3008 30.8565 31.392C30.664 31.4832 30.4495 31.5178 30.238 31.4919C30.0266 31.4659 29.8268 31.3805 29.662 31.2455L26.2505 28.4541L22.8375 31.2455C22.6365 31.4099 22.3849 31.4997 22.1252 31.4997C21.8656 31.4997 21.6139 31.4099 21.413 31.2455L18 28.4541L14.587 31.2455C14.3861 31.4099 14.1344 31.4997 13.8748 31.4997C13.6151 31.4997 13.3635 31.4099 13.1625 31.2455L9.74953 28.4541L6.33797 31.2455C6.17317 31.3805 5.97342 31.4659 5.76196 31.4919C5.55049 31.5178 5.33601 31.4832 5.14347 31.392C4.95093 31.3008 4.78823 31.1568 4.67432 30.9768C4.56041 30.7967 4.49995 30.588 4.5 30.375V16.875C4.5 13.2946 5.92232 9.8608 8.45406 7.32906C10.9858 4.79732 14.4196 3.375 18 3.375C21.5804 3.375 25.0142 4.79732 27.5459 7.32906C30.0777 9.8608 31.5 13.2946 31.5 16.875ZM29.25 16.875C29.25 13.8913 28.0647 11.0298 25.955 8.92005C23.8452 6.81026 20.9837 5.625 18 5.625C15.0163 5.625 12.1548 6.81026 10.045 8.92005C7.93526 11.0298 6.75 13.8913 6.75 16.875V28.0012L9.03797 26.1295C9.23894 25.9651 9.49059 25.8753 9.75023 25.8753C10.0099 25.8753 10.2615 25.9651 10.4625 26.1295L13.8755 28.9209L17.287 26.1295C17.4881 25.9648 17.74 25.8748 18 25.8748C18.26 25.8748 18.5119 25.9648 18.713 26.1295L22.1245 28.9209L25.5375 26.1295C25.7385 25.9651 25.9901 25.8753 26.2498 25.8753C26.5094 25.8753 26.7611 25.9651 26.962 26.1295L29.25 28.0012V16.875Z" fill="black"/>
</svg>
