<svg width="36" height="36" viewBox="0 0 36 36" fill="none" xmlns="http://www.w3.org/2000/svg">
<path d="M8.98499 7.39346C9.19567 7.6044 9.314 7.89034 9.314 8.18846C9.314 8.48659 9.19567 8.77252 8.98499 8.98346C7.801 10.1674 6.86181 11.573 6.22104 13.1199C5.58027 14.6668 5.25046 16.3248 5.25046 17.9992C5.25046 19.6736 5.58027 21.3316 6.22104 22.8785C6.86181 24.4254 7.801 25.831 8.98499 27.015C9.18982 27.2272 9.30308 27.5115 9.30038 27.8064C9.29768 28.1014 9.17923 28.3835 8.97055 28.592C8.76187 28.8005 8.47964 28.9187 8.18467 28.9211C7.8897 28.9235 7.60557 28.81 7.39349 28.605C1.53599 22.7475 1.53599 13.251 7.39349 7.39346C7.60443 7.18279 7.89037 7.06445 8.18849 7.06445C8.48662 7.06445 8.77405 7.18279 8.98499 7.39346ZM28.6065 7.39346C34.464 13.251 34.464 22.7475 28.6065 28.6065C28.3932 28.8052 28.1112 28.9134 27.8197 28.9082C27.5283 28.9031 27.2502 28.785 27.0441 28.5789C26.8379 28.3728 26.7199 28.0947 26.7147 27.8032C26.7096 27.5118 26.8178 27.2297 27.0165 27.0165C28.2007 25.8325 29.1401 24.4268 29.781 22.8798C30.4219 21.3327 30.7518 19.6745 30.7518 18C30.7518 16.3254 30.4219 14.6672 29.781 13.1202C29.1401 11.5731 28.2007 10.1674 27.0165 8.98346C26.906 8.88047 26.8173 8.75627 26.7558 8.61827C26.6943 8.48027 26.6613 8.3313 26.6586 8.18025C26.6559 8.02919 26.6837 7.87915 26.7403 7.73907C26.7969 7.59898 26.8811 7.47173 26.9879 7.36491C27.0948 7.25808 27.222 7.17386 27.3621 7.11728C27.5022 7.0607 27.6522 7.03291 27.8033 7.03558C27.9543 7.03824 28.1033 7.0713 28.2413 7.13279C28.3793 7.19428 28.5035 7.28293 28.6065 7.39346ZM13.227 11.6355C13.4377 11.8464 13.556 12.1323 13.556 12.4305C13.556 12.7286 13.4377 13.0145 13.227 13.2255C12.6 13.8523 12.1026 14.5965 11.7632 15.4156C11.4239 16.2347 11.2492 17.1126 11.2492 17.9992C11.2492 18.8858 11.4239 19.7637 11.7632 20.5828C12.1026 21.4019 12.6 22.1461 13.227 22.773C13.4257 22.9862 13.5339 23.2683 13.5288 23.5597C13.5236 23.8512 13.4055 24.1293 13.1994 24.3354C12.9933 24.5415 12.7152 24.6596 12.4238 24.6647C12.1323 24.6699 11.8503 24.5617 11.637 24.363C9.94929 22.6752 9.00116 20.3861 9.00116 17.9992C9.00116 15.6124 9.94929 13.3233 11.637 11.6355C11.8479 11.4248 12.1339 11.3065 12.432 11.3065C12.7301 11.3065 13.0161 11.4248 13.227 11.6355ZM24.3645 11.6355C26.0522 13.3233 27.0003 15.6124 27.0003 17.9992C27.0003 20.3861 26.0522 22.6752 24.3645 24.363C24.2608 24.4705 24.1367 24.5562 23.9994 24.6152C23.8622 24.6743 23.7146 24.7054 23.5652 24.7067C23.4159 24.7081 23.2677 24.6797 23.1294 24.6232C22.9911 24.5667 22.8655 24.4832 22.7598 24.3777C22.6541 24.2721 22.5705 24.1465 22.5139 24.0083C22.4573 23.87 22.4287 23.7219 22.43 23.5725C22.4312 23.4232 22.4622 23.2755 22.5211 23.1383C22.5799 23.001 22.6656 22.8768 22.773 22.773C23.3998 22.1462 23.897 21.402 24.2362 20.5831C24.5755 19.7641 24.75 18.8864 24.75 18C24.75 17.1135 24.5755 16.2358 24.2362 15.4168C23.897 14.5979 23.3998 13.8538 22.773 13.227C22.5743 13.0137 22.4661 12.7316 22.4712 12.4402C22.4764 12.1487 22.5944 11.8706 22.8006 11.6645C23.0067 11.4584 23.2848 11.3403 23.5762 11.3352C23.8677 11.3301 24.1497 11.4382 24.363 11.637L24.3645 11.6355ZM18 15.75C18.5967 15.75 19.169 15.987 19.591 16.409C20.0129 16.8309 20.25 17.4032 20.25 18C20.25 18.5967 20.0129 19.169 19.591 19.591C19.169 20.0129 18.5967 20.25 18 20.25C17.4033 20.25 16.831 20.0129 16.409 19.591C15.987 19.169 15.75 18.5967 15.75 18C15.75 17.4032 15.987 16.8309 16.409 16.409C16.831 15.987 17.4033 15.75 18 15.75Z" fill="black"/>
</svg>
