<svg width="36" height="36" viewBox="0 0 36 36" fill="none" xmlns="http://www.w3.org/2000/svg">
<path fill-rule="evenodd" clip-rule="evenodd" d="M7.896 14.3355C8.0616 11.7684 9.19815 9.36051 11.0748 7.60101C12.9515 5.8415 15.4275 4.8623 18 4.8623C20.5725 4.8623 23.0485 5.8415 24.9252 7.60101C26.8018 9.36051 27.9384 11.7684 28.104 14.3355C28.7329 14.0101 29.4349 13.852 30.1426 13.8764C30.8503 13.9009 31.5397 14.1071 32.1446 14.4753C32.7495 14.8434 33.2494 15.3611 33.5962 15.9784C33.9431 16.5957 34.1252 17.2919 34.125 18V21C34.1251 21.5612 34.0106 22.1165 33.7887 22.632C33.5667 23.1474 33.2419 23.6121 32.8341 23.9977C32.4264 24.3833 31.9442 24.6816 31.4172 24.8744C30.8902 25.0672 30.3293 25.1505 29.769 25.119V25.125C28.7362 25.125 27.7458 24.7148 27.0155 23.9845C26.2853 23.2542 25.875 22.2638 25.875 21.231V15C25.875 12.9115 25.0453 10.9084 23.5685 9.43156C22.0916 7.95472 20.0886 7.12503 18 7.12503C15.9114 7.12503 13.9084 7.95472 12.4315 9.43156C10.9547 10.9084 10.125 12.9115 10.125 15V21.231C10.125 22.2638 9.71474 23.2542 8.98447 23.9845C8.25421 24.7148 7.26375 25.125 6.231 25.125V25.119C5.67068 25.1505 5.10985 25.0672 4.58281 24.8744C4.05578 24.6816 3.57362 24.3833 3.16586 23.9977C2.7581 23.6121 2.4333 23.1474 2.21134 22.632C1.98938 22.1165 1.87494 21.5612 1.875 21V18C1.87482 17.2919 2.05692 16.5957 2.40377 15.9784C2.75062 15.3611 3.25054 14.8434 3.85541 14.4753C4.46029 14.1071 5.14974 13.9009 5.85741 13.8764C6.56508 13.852 7.26714 14.0101 7.896 14.3355ZM7.875 18C7.8748 17.5027 7.67707 17.0259 7.3253 16.6744C6.97352 16.3229 6.49653 16.1256 5.99925 16.1258C5.50197 16.126 5.02513 16.3237 4.67364 16.6755C4.32215 17.0273 4.1248 17.5043 4.125 18.0015V21.0015C4.125 21.4988 4.32254 21.9757 4.67418 22.3274C5.02581 22.679 5.50272 22.8765 6 22.8765C6.49728 22.8765 6.97419 22.679 7.32583 22.3274C7.67746 21.9757 7.875 21.4988 7.875 21.0015C7.875 21.0015 7.875 21.003 7.875 21.0015V18.0015V18ZM12.375 15.0015C12.375 13.5097 12.9676 12.0789 14.0225 11.0241C15.0774 9.96916 16.5082 9.37653 18 9.37653C19.4918 9.37653 20.9226 9.96916 21.9775 11.0241C23.0324 12.0789 23.625 13.5097 23.625 15.0015V19.5015C23.625 20.7982 23.1771 22.055 22.3571 23.0595C21.5372 24.064 20.3954 24.7544 19.125 25.014V28.5C19.125 28.7984 19.0065 29.0845 18.7955 29.2955C18.5845 29.5065 18.2984 29.625 18 29.625C17.7016 29.625 17.4155 29.5065 17.2045 29.2955C16.9935 29.0845 16.875 28.7984 16.875 28.5V25.0125C15.6046 24.7529 14.4628 24.0625 13.6429 23.058C12.8229 22.0535 12.375 20.7967 12.375 19.5V15V15.0015ZM14.817 13.8765H15C15.2984 13.8765 15.5845 13.9951 15.7955 14.206C16.0065 14.417 16.125 14.7032 16.125 15.0015C16.125 15.2999 16.0065 15.586 15.7955 15.797C15.5845 16.008 15.2984 16.1265 15 16.1265H14.625V18.3765H15C15.2984 18.3765 15.5845 18.4951 15.7955 18.706C16.0065 18.917 16.125 19.2032 16.125 19.5015C16.125 19.7999 16.0065 20.086 15.7955 20.297C15.5845 20.508 15.2984 20.6265 15 20.6265H14.817C15.0492 21.2853 15.4801 21.8557 16.0502 22.2592C16.6203 22.6627 17.3015 22.8794 18 22.8794C18.6985 22.8794 19.3797 22.6627 19.9498 22.2592C20.5199 21.8557 20.9508 21.2853 21.183 20.6265H19.5C19.2016 20.6265 18.9155 20.508 18.7045 20.297C18.4935 20.086 18.375 19.7999 18.375 19.5015C18.375 19.2032 18.4935 18.917 18.7045 18.706C18.9155 18.4951 19.2016 18.3765 19.5 18.3765H21.375V16.1265H19.5C19.2016 16.1265 18.9155 16.008 18.7045 15.797C18.4935 15.586 18.375 15.2999 18.375 15.0015C18.375 14.7032 18.4935 14.417 18.7045 14.206C18.9155 13.9951 19.2016 13.8765 19.5 13.8765H21.183C20.9501 13.2185 20.519 12.6488 19.9489 12.2459C19.3789 11.843 18.698 11.6266 18 11.6266C17.302 11.6266 16.6211 11.843 16.0511 12.2459C15.481 12.6488 15.0499 13.2185 14.817 13.8765ZM30 16.125C28.965 16.125 28.125 16.965 28.125 18V21C28.125 21.4973 28.3225 21.9742 28.6742 22.3259C29.0258 22.6775 29.5027 22.875 30 22.875C30.4973 22.875 30.9742 22.6775 31.3258 22.3259C31.6775 21.9742 31.875 21.4973 31.875 21V18C31.875 16.965 31.035 16.125 30 16.125Z" fill="black"/>
</svg>
