<svg width="36" height="36" viewBox="0 0 36 36" fill="none" xmlns="http://www.w3.org/2000/svg">
<g clip-path="url(#clip0_34_1418)">
<path d="M18.75 22.5C19.8 22.5 20.6875 22.1375 21.4125 21.4125C22.1375 20.6875 22.5 19.8 22.5 18.75V10.5H27V7.5H21V15.75C20.675 15.5 20.325 15.3125 19.95 15.1875C19.575 15.0625 19.175 15 18.75 15C17.7 15 16.8125 15.3625 16.0875 16.0875C15.3625 16.8125 15 17.7 15 18.75C15 19.8 15.3625 20.6875 16.0875 21.4125C16.8125 22.1375 17.7 22.5 18.75 22.5ZM12 27C11.175 27 10.4685 26.706 9.8805 26.118C9.2925 25.53 8.999 24.824 9 24V6C9 5.175 9.294 4.4685 9.882 3.8805C10.47 3.2925 11.176 2.999 12 3H30C30.825 3 31.5315 3.294 32.1195 3.882C32.7075 4.47 33.001 5.176 33 6V24C33 24.825 32.706 25.5315 32.118 26.1195C31.53 26.7075 30.824 27.001 30 27H12ZM12 24H30V6H12V24ZM6 33C5.175 33 4.4685 32.706 3.8805 32.118C3.2925 31.53 2.999 30.824 3 30V9H6V30H27V33H6Z" fill="black"/>
</g>
<defs>
<clipPath id="clip0_34_1418">
<rect width="36" height="36" fill="white"/>
</clipPath>
</defs>
</svg>
