<svg width="36" height="36" viewBox="0 0 36 36" fill="none" xmlns="http://www.w3.org/2000/svg">
<path d="M9 25.5H16.5V22.5H9V25.5ZM24 25.5H27V22.5H24V25.5ZM9 19.5H16.5V16.5H9V19.5ZM24 19.5H27V10.5H24V19.5ZM9 13.5H16.5V10.5H9V13.5ZM6 31.5C5.175 31.5 4.4685 31.206 3.8805 30.618C3.2925 30.03 2.999 29.324 3 28.5V7.5C3 6.675 3.294 5.9685 3.882 5.3805C4.47 4.7925 5.176 4.499 6 4.5H30C30.825 4.5 31.5315 4.794 32.1195 5.382C32.7075 5.97 33.001 6.676 33 7.5V28.5C33 29.325 32.706 30.0315 32.118 30.6195C31.53 31.2075 30.824 31.501 30 31.5H6ZM6 28.5H30V7.5H6V28.5Z" fill="black"/>
</svg>
