<svg width="24" height="25" viewBox="0 0 24 25" fill="none" xmlns="http://www.w3.org/2000/svg">
<path d="M17.1818 15.665H16.1196L15.7432 15.302C17.1064 13.7208 17.8556 11.7022 17.8541 9.61456C17.8541 7.88604 17.3415 6.19633 16.3812 4.75912C15.4209 3.32191 14.056 2.20174 12.459 1.54026C10.8621 0.878787 9.10486 0.705714 7.40956 1.04293C5.71425 1.38015 4.15701 2.21251 2.93476 3.43476C1.71251 4.65701 0.88015 6.21425 0.542932 7.90956C0.205714 9.60486 0.378787 11.3621 1.04026 12.959C1.70174 14.556 2.82191 15.9209 4.25912 16.8812C5.69633 17.8415 7.38604 18.3541 9.11456 18.3541C11.2793 18.3541 13.2692 17.5608 14.802 16.2432L15.165 16.6196V17.6818L21.8878 24.3911L23.8911 22.3878L17.1818 15.665ZM9.11456 15.665C5.76664 15.665 3.0641 12.9625 3.0641 9.61456C3.0641 6.26664 5.76664 3.5641 9.11456 3.5641C12.4625 3.5641 15.165 6.26664 15.165 9.61456C15.165 12.9625 12.4625 15.665 9.11456 15.665Z" fill="black"/>
</svg>
