<svg width="36" height="36" viewBox="0 0 36 36" fill="none" xmlns="http://www.w3.org/2000/svg">
<path d="M17.9999 16.7274L19.9493 14.778C19.1591 13.7772 18.5363 12.5352 18.0377 11.2428C17.4167 9.62818 16.9685 7.86418 16.6445 6.24418C16.5943 5.9926 16.5463 5.74059 16.5005 5.48818C14.0016 5.78431 11.6497 6.82544 9.7505 8.47618L17.9999 16.7274ZM21.2219 16.0506L19.2725 18L27.5237 26.2512C29.1743 24.3519 30.2155 22 30.5117 19.5012C30.2605 19.4559 30.0097 19.4085 29.7593 19.359C28.1393 19.035 26.3753 18.585 24.7607 17.964C23.4665 17.4672 22.2227 16.8426 21.2219 16.0506ZM30.5963 17.6886C30.5277 14.7655 29.441 11.9581 27.5237 9.75058L22.5053 14.7672C23.2793 15.3432 24.2747 15.849 25.4069 16.2846C26.8937 16.857 28.5515 17.2818 30.1121 17.595L30.5963 17.6886ZM21.2327 13.4946L26.2511 8.47618C24.0436 6.55891 21.2362 5.47222 18.3131 5.40358L18.4085 5.88958C18.7217 7.45198 19.1465 9.10978 19.7189 10.5966C20.1527 11.727 20.6567 12.7206 21.2327 13.4946ZM17.9999 19.2708L16.0541 21.2166C16.8461 22.2174 17.4689 23.4612 17.9675 24.7554C18.5885 26.37 19.0385 28.134 19.3625 29.754C19.4129 30.0096 19.4615 30.2616 19.5065 30.51C22.0035 30.2128 24.3534 29.1717 26.2511 27.522L17.9999 19.2708ZM14.7707 22.5L9.7487 27.522C11.9571 29.44 14.766 30.5268 17.6903 30.5946C17.6615 30.4326 17.6291 30.2706 17.5967 30.1068C17.2835 28.5444 16.8587 26.8884 16.2863 25.4016C15.8525 24.2694 15.3467 23.2758 14.7707 22.5018V22.5ZM13.4963 21.2292C12.7223 20.6532 11.7287 20.1492 10.5983 19.7136C9.1115 19.1412 7.4537 18.7146 5.8931 18.4032C5.73008 18.3704 5.56688 18.3386 5.4035 18.3078C5.4713 21.2321 6.55805 24.0409 8.4761 26.2494L13.4981 21.2274L13.4963 21.2292ZM14.7797 19.944L16.7273 18L8.4761 9.74878C6.82601 11.647 5.78493 13.9976 5.4881 16.4952C5.7383 16.5402 5.9903 16.5888 6.2459 16.6392C7.8659 16.9632 9.6299 17.4132 11.2445 18.0342C12.5369 18.531 13.7807 19.1556 14.7797 19.9458V19.944ZM28.1825 28.1808C26.8484 29.5313 25.2604 30.6047 23.5098 31.3393C21.7593 32.0738 19.8808 32.455 17.9824 32.4608C16.0841 32.4667 14.2032 32.0971 12.4482 31.3734C10.6932 30.6496 9.09862 29.586 7.7562 28.2437C6.41377 26.9014 5.35001 25.3069 4.62612 23.5519C3.90222 21.797 3.53247 19.9162 3.53815 18.0178C3.54383 16.1194 3.92482 14.2409 4.6592 12.4903C5.39359 10.7397 6.46687 9.15163 7.8173 7.81738C10.5179 5.11679 14.1807 3.59961 17.9999 3.59961C21.8191 3.59961 25.4819 5.11679 28.1825 7.81738C30.8831 10.518 32.4003 14.1808 32.4003 18C32.4003 21.8192 30.8831 25.4802 28.1825 28.1808Z" fill="black"/>
</svg>
