<svg width="36" height="36" viewBox="0 0 36 36" fill="none" xmlns="http://www.w3.org/2000/svg">
<path d="M13.5 25.875V27.3855C13.5001 27.9767 13.3837 28.562 13.1574 29.1082C12.9312 29.6543 12.5996 30.1506 12.1815 30.5685L11.25 31.5H24.75L23.8185 30.5685C23.4004 30.1506 23.0688 29.6543 22.8426 29.1082C22.6163 28.562 22.4999 27.9767 22.5 27.3855V25.875M31.5 7.875V22.5C31.5 23.3951 31.1444 24.2535 30.5115 24.8865C29.8785 25.5194 29.0201 25.875 28.125 25.875H7.875C6.97989 25.875 6.12145 25.5194 5.48851 24.8865C4.85558 24.2535 4.5 23.3951 4.5 22.5V7.875M31.5 7.875C31.5 6.97989 31.1444 6.12145 30.5115 5.48851C29.8785 4.85558 29.0201 4.5 28.125 4.5H7.875C6.97989 4.5 6.12145 4.85558 5.48851 5.48851C4.85558 6.12145 4.5 6.97989 4.5 7.875M31.5 7.875V18C31.5 18.8951 31.1444 19.7535 30.5115 20.3865C29.8785 21.0194 29.0201 21.375 28.125 21.375H7.875C6.97989 21.375 6.12145 21.0194 5.48851 20.3865C4.85558 19.7535 4.5 18.8951 4.5 18V7.875" stroke="black" stroke-width="2.25" stroke-linecap="round" stroke-linejoin="round"/>
</svg>
