<svg width="47" height="47" viewBox="0 0 47 47" fill="none" xmlns="http://www.w3.org/2000/svg">
<g clip-path="url(#clip0_258_1470)">
<path d="M44.9805 21.6713C44.4811 20.8231 44.5031 19.5453 44.5509 18.5833C44.7161 15.33 44.0221 12.1538 42.1494 9.4697C39.6562 5.88962 35.7751 2.99619 31.3541 1.14189C30.7262 0.877513 29.9809 0.653529 29.2648 0.646185C29.2502 0.642513 29.2318 0.635169 29.2134 0.631498C28.9803 0.582535 28.7398 0.579978 28.5057 0.623972C28.2715 0.667966 28.0483 0.757649 27.8489 0.887901C27.6494 1.01815 27.4776 1.18642 27.3431 1.3831C27.2087 1.57977 27.1143 1.801 27.0654 2.03415L21.0766 30.5903C19.4977 29.0775 17.4194 28.1375 15.1795 27.7446C11.3057 27.069 6.98757 27.9906 4.08679 30.2121C3.11375 30.9575 2.115 31.9636 1.48343 33.0285C0.833511 34.1263 0.249683 35.7567 0.26437 37.0492C0.297417 39.7443 1.46507 42.377 3.56171 44.0918C4.1382 44.5655 4.78812 45.0171 5.45273 45.3549C9.10257 47.2276 13.6704 46.3977 17.1219 44.4737C19.74 43.0123 22.549 40.2988 23.3237 37.2768C23.3862 37.152 23.4302 37.0198 23.4633 36.8729L28.1596 14.4965C28.4607 14.5516 28.7434 14.5956 28.9564 14.6434C30.1902 14.9041 31.3945 15.2786 32.5475 15.778C34.6882 16.7106 36.7555 18.0949 38.0112 20.1071C39.2634 22.123 40.3869 24.0801 42.7002 25.0458C43.6623 25.4497 45.4688 25.5268 46.295 24.7924C47.6573 23.5844 45.5055 22.5599 44.9805 21.6713Z" fill="#8C52FF"/>
</g>
<defs>
<clipPath id="clip0_258_1470">
<rect width="47" height="47" fill="white"/>
</clipPath>
</defs>
</svg>
