<svg width="39" height="23" viewBox="0 0 39 23" fill="none" xmlns="http://www.w3.org/2000/svg">
<path d="M19.5 22.9999C19.0336 22.9999 18.5813 22.9122 18.1429 22.7366C17.7045 22.561 17.3407 22.3269 17.0516 22.0343L0.961882 5.88167C0.320626 5.2379 0 4.41856 0 3.42365C0 2.42875 0.320626 1.60941 0.961882 0.965645C1.60314 0.321881 2.41928 0 3.41031 0C4.40134 0 5.21749 0.321881 5.85874 0.965645L19.5 14.6603L33.1413 0.965645C33.7825 0.321881 34.5987 0 35.5897 0C36.5807 0 37.3969 0.321881 38.0381 0.965645C38.6794 1.60941 39 2.42875 39 3.42365C39 4.41856 38.6794 5.2379 38.0381 5.88167L21.9484 22.0343C21.5987 22.3854 21.2197 22.6348 20.8117 22.7822C20.4036 22.9297 19.9664 23.0023 19.5 22.9999Z" fill="#FAFAFA"/>
</svg>
