<svg width="1276" height="30" viewBox="0 0 1276 30" fill="none" xmlns="http://www.w3.org/2000/svg">
<path d="M0.707386 12V10.6705L3.81392 7.79403C4.07813 7.53835 4.29972 7.30824 4.47869 7.10369C4.66051 6.89915 4.7983 6.69886 4.89205 6.50284C4.9858 6.30398 5.03267 6.08949 5.03267 5.85938C5.03267 5.60369 4.97443 5.38352 4.85795 5.19886C4.74148 5.01136 4.58239 4.8679 4.38068 4.76847C4.17898 4.66619 3.95028 4.61506 3.6946 4.61506C3.42756 4.61506 3.1946 4.66903 2.99574 4.77699C2.79688 4.88494 2.64347 5.03977 2.53551 5.24148C2.42756 5.44318 2.37358 5.68324 2.37358 5.96165H0.622159C0.622159 5.39062 0.75142 4.89489 1.00994 4.47443C1.26847 4.05398 1.63068 3.72869 2.09659 3.49858C2.5625 3.26847 3.09943 3.15341 3.70739 3.15341C4.33239 3.15341 4.87642 3.2642 5.33949 3.4858C5.8054 3.70455 6.16761 4.00852 6.42614 4.39773C6.68466 4.78693 6.81392 5.23295 6.81392 5.7358C6.81392 6.06534 6.74858 6.39062 6.6179 6.71165C6.49006 7.03267 6.26136 7.3892 5.93182 7.78125C5.60227 8.17045 5.13778 8.63778 4.53835 9.18324L3.2642 10.4318V10.4915H6.92898V12H0.707386ZM11.4599 12.1918C10.7269 12.1889 10.0962 12.0085 9.56781 11.6506C9.04224 11.2926 8.63741 10.7741 8.35332 10.0952C8.07207 9.41619 7.93287 8.59943 7.93571 7.64489C7.93571 6.69318 8.07633 5.8821 8.35758 5.21165C8.64167 4.54119 9.0465 4.03125 9.57207 3.68182C10.1005 3.32955 10.7297 3.15341 11.4599 3.15341C12.19 3.15341 12.8178 3.32955 13.3434 3.68182C13.8718 4.03409 14.278 4.54545 14.5621 5.21591C14.8462 5.88352 14.9868 6.69318 14.984 7.64489C14.984 8.60227 14.842 9.42045 14.5579 10.0994C14.2766 10.7784 13.8732 11.2969 13.3476 11.6548C12.8221 12.0128 12.1928 12.1918 11.4599 12.1918ZM11.4599 10.6619C11.9599 10.6619 12.359 10.4105 12.6573 9.90767C12.9556 9.40483 13.1033 8.65057 13.1005 7.64489C13.1005 6.98295 13.0323 6.43182 12.8959 5.99148C12.7624 5.55114 12.5721 5.22017 12.3249 4.99858C12.0806 4.77699 11.7922 4.66619 11.4599 4.66619C10.9627 4.66619 10.565 4.91477 10.2667 5.41193C9.96838 5.90909 9.81781 6.65341 9.81497 7.64489C9.81497 8.31534 9.88173 8.875 10.0153 9.32386C10.1516 9.76989 10.3434 10.1051 10.5905 10.3295C10.8377 10.5511 11.1275 10.6619 11.4599 10.6619ZM17.1498 10.9858C16.8686 10.9858 16.6271 10.8864 16.4254 10.6875C16.2265 10.4886 16.1271 10.2472 16.1271 9.96307C16.1271 9.68466 16.2265 9.44602 16.4254 9.24716C16.6271 9.0483 16.8686 8.94886 17.1498 8.94886C17.4226 8.94886 17.6612 9.0483 17.8657 9.24716C18.0703 9.44602 18.1726 9.68466 18.1726 9.96307C18.1726 10.1506 18.1243 10.3224 18.0277 10.4787C17.9339 10.6321 17.8103 10.7557 17.6569 10.8494C17.5035 10.9403 17.3345 10.9858 17.1498 10.9858ZM17.1498 6.70312C16.8686 6.70312 16.6271 6.60369 16.4254 6.40483C16.2265 6.20597 16.1271 5.96449 16.1271 5.6804C16.1271 5.40199 16.2265 5.16477 16.4254 4.96875C16.6271 4.76989 16.8686 4.67045 17.1498 4.67045C17.4226 4.67045 17.6612 4.76989 17.8657 4.96875C18.0703 5.16477 18.1726 5.40199 18.1726 5.6804C18.1726 5.87074 18.1243 6.04403 18.0277 6.20028C17.9339 6.35369 17.8103 6.47585 17.6569 6.56676C17.5035 6.65767 17.3345 6.70312 17.1498 6.70312ZM22.8398 12.1918C22.1068 12.1889 21.4762 12.0085 20.9477 11.6506C20.4222 11.2926 20.0173 10.7741 19.7333 10.0952C19.452 9.41619 19.3128 8.59943 19.3156 7.64489C19.3156 6.69318 19.4563 5.8821 19.7375 5.21165C20.0216 4.54119 20.4264 4.03125 20.952 3.68182C21.4804 3.32955 22.1097 3.15341 22.8398 3.15341C23.5699 3.15341 24.1977 3.32955 24.7233 3.68182C25.2517 4.03409 25.658 4.54545 25.9421 5.21591C26.2262 5.88352 26.3668 6.69318 26.3639 7.64489C26.3639 8.60227 26.2219 9.42045 25.9378 10.0994C25.6566 10.7784 25.2531 11.2969 24.7276 11.6548C24.202 12.0128 23.5727 12.1918 22.8398 12.1918ZM22.8398 10.6619C23.3398 10.6619 23.7389 10.4105 24.0372 9.90767C24.3355 9.40483 24.4833 8.65057 24.4804 7.64489C24.4804 6.98295 24.4122 6.43182 24.2759 5.99148C24.1423 5.55114 23.952 5.22017 23.7048 4.99858C23.4605 4.77699 23.1722 4.66619 22.8398 4.66619C22.3426 4.66619 21.9449 4.91477 21.6466 5.41193C21.3483 5.90909 21.1977 6.65341 21.1949 7.64489C21.1949 8.31534 21.2617 8.875 21.3952 9.32386C21.5316 9.76989 21.7233 10.1051 21.9705 10.3295C22.2176 10.5511 22.5074 10.6619 22.8398 10.6619ZM30.6391 12.1193C30.0369 12.1193 29.4999 12.0085 29.0283 11.7869C28.5596 11.5653 28.1874 11.2599 27.9119 10.8707C27.6363 10.4815 27.4928 10.0355 27.4815 9.53267H29.2712C29.2911 9.87074 29.4332 10.1449 29.6974 10.3551C29.9616 10.5653 30.2755 10.6705 30.6391 10.6705C30.9289 10.6705 31.1846 10.6065 31.4062 10.4787C31.6306 10.348 31.8053 10.1676 31.9303 9.9375C32.0582 9.70455 32.1221 9.4375 32.1221 9.13636C32.1221 8.82955 32.0567 8.55966 31.9261 8.3267C31.7982 8.09375 31.6207 7.91193 31.3934 7.78125C31.1661 7.65057 30.9062 7.58381 30.6136 7.58097C30.3579 7.58097 30.1093 7.63352 29.8678 7.73864C29.6292 7.84375 29.4431 7.98722 29.3096 8.16903L27.669 7.875L28.0823 3.27273H33.4175V4.78125H29.6036L29.3778 6.96733H29.4289C29.5823 6.75142 29.8139 6.57244 30.1235 6.4304C30.4332 6.28835 30.7798 6.21733 31.1633 6.21733C31.6889 6.21733 32.1576 6.34091 32.5695 6.58807C32.9815 6.83523 33.3067 7.17472 33.5454 7.60653C33.784 8.03551 33.9019 8.52983 33.8991 9.08949C33.9019 9.67756 33.7656 10.2003 33.49 10.6577C33.2173 11.1122 32.8352 11.4702 32.3437 11.7315C31.855 11.9901 31.2869 12.1193 30.6391 12.1193Z" fill="white"/>
<path d="M1234.38 12.1193C1233.77 12.1193 1233.24 12.0085 1232.77 11.7869C1232.3 11.5653 1231.92 11.2599 1231.65 10.8707C1231.37 10.4815 1231.23 10.0355 1231.22 9.53267H1233.01C1233.03 9.87074 1233.17 10.1449 1233.43 10.3551C1233.7 10.5653 1234.01 10.6705 1234.38 10.6705C1234.67 10.6705 1234.92 10.6065 1235.14 10.4787C1235.37 10.348 1235.54 10.1676 1235.67 9.9375C1235.79 9.70455 1235.86 9.4375 1235.86 9.13636C1235.86 8.82955 1235.79 8.55966 1235.66 8.3267C1235.53 8.09375 1235.36 7.91193 1235.13 7.78125C1234.9 7.65057 1234.64 7.58381 1234.35 7.58097C1234.09 7.58097 1233.85 7.63352 1233.6 7.73864C1233.37 7.84375 1233.18 7.98722 1233.05 8.16903L1231.41 7.875L1231.82 3.27273H1237.15V4.78125H1233.34L1233.11 6.96733H1233.17C1233.32 6.75142 1233.55 6.57244 1233.86 6.4304C1234.17 6.28835 1234.52 6.21733 1234.9 6.21733C1235.43 6.21733 1235.89 6.34091 1236.31 6.58807C1236.72 6.83523 1237.04 7.17472 1237.28 7.60653C1237.52 8.03551 1237.64 8.52983 1237.64 9.08949C1237.64 9.67756 1237.5 10.2003 1237.23 10.6577C1236.95 11.1122 1236.57 11.4702 1236.08 11.7315C1235.59 11.9901 1235.02 12.1193 1234.38 12.1193ZM1238.56 10.4659V9.01278L1242.21 3.27273H1243.46V5.28409H1242.72L1240.42 8.91903V8.98722H1245.6V10.4659H1238.56ZM1242.75 12V10.0227L1242.79 9.37926V3.27273H1244.52V12H1242.75ZM1247.68 10.9858C1247.4 10.9858 1247.15 10.8864 1246.95 10.6875C1246.75 10.4886 1246.65 10.2472 1246.65 9.96307C1246.65 9.68466 1246.75 9.44602 1246.95 9.24716C1247.15 9.0483 1247.4 8.94886 1247.68 8.94886C1247.95 8.94886 1248.19 9.0483 1248.39 9.24716C1248.6 9.44602 1248.7 9.68466 1248.7 9.96307C1248.7 10.1506 1248.65 10.3224 1248.56 10.4787C1248.46 10.6321 1248.34 10.7557 1248.18 10.8494C1248.03 10.9403 1247.86 10.9858 1247.68 10.9858ZM1247.68 6.70312C1247.4 6.70312 1247.15 6.60369 1246.95 6.40483C1246.75 6.20597 1246.65 5.96449 1246.65 5.6804C1246.65 5.40199 1246.75 5.16477 1246.95 4.96875C1247.15 4.76989 1247.4 4.67045 1247.68 4.67045C1247.95 4.67045 1248.19 4.76989 1248.39 4.96875C1248.6 5.16477 1248.7 5.40199 1248.7 5.6804C1248.7 5.87074 1248.65 6.04403 1248.56 6.20028C1248.46 6.35369 1248.34 6.47585 1248.18 6.56676C1248.03 6.65767 1247.86 6.70312 1247.68 6.70312ZM1249.95 12V10.6705L1253.05 7.79403C1253.32 7.53835 1253.54 7.30824 1253.72 7.10369C1253.9 6.89915 1254.04 6.69886 1254.13 6.50284C1254.22 6.30398 1254.27 6.08949 1254.27 5.85938C1254.27 5.60369 1254.21 5.38352 1254.1 5.19886C1253.98 5.01136 1253.82 4.8679 1253.62 4.76847C1253.42 4.66619 1253.19 4.61506 1252.93 4.61506C1252.67 4.61506 1252.43 4.66903 1252.23 4.77699C1252.04 4.88494 1251.88 5.03977 1251.77 5.24148C1251.67 5.44318 1251.61 5.68324 1251.61 5.96165H1249.86C1249.86 5.39062 1249.99 4.89489 1250.25 4.47443C1250.51 4.05398 1250.87 3.72869 1251.33 3.49858C1251.8 3.26847 1252.34 3.15341 1252.95 3.15341C1253.57 3.15341 1254.11 3.2642 1254.58 3.4858C1255.04 3.70455 1255.41 4.00852 1255.66 4.39773C1255.92 4.78693 1256.05 5.23295 1256.05 5.7358C1256.05 6.06534 1255.99 6.39062 1255.86 6.71165C1255.73 7.03267 1255.5 7.3892 1255.17 7.78125C1254.84 8.17045 1254.38 8.63778 1253.78 9.18324L1252.5 10.4318V10.4915H1256.17V12H1249.95ZM1260.7 12.1918C1259.97 12.1889 1259.33 12.0085 1258.81 11.6506C1258.28 11.2926 1257.88 10.7741 1257.59 10.0952C1257.31 9.41619 1257.17 8.59943 1257.17 7.64489C1257.17 6.69318 1257.31 5.8821 1257.6 5.21165C1257.88 4.54119 1258.28 4.03125 1258.81 3.68182C1259.34 3.32955 1259.97 3.15341 1260.7 3.15341C1261.43 3.15341 1262.06 3.32955 1262.58 3.68182C1263.11 4.03409 1263.52 4.54545 1263.8 5.21591C1264.08 5.88352 1264.23 6.69318 1264.22 7.64489C1264.22 8.60227 1264.08 9.42045 1263.8 10.0994C1263.51 10.7784 1263.11 11.2969 1262.59 11.6548C1262.06 12.0128 1261.43 12.1918 1260.7 12.1918ZM1260.7 10.6619C1261.2 10.6619 1261.6 10.4105 1261.9 9.90767C1262.19 9.40483 1262.34 8.65057 1262.34 7.64489C1262.34 6.98295 1262.27 6.43182 1262.13 5.99148C1262 5.55114 1261.81 5.22017 1261.56 4.99858C1261.32 4.77699 1261.03 4.66619 1260.7 4.66619C1260.2 4.66619 1259.8 4.91477 1259.51 5.41193C1259.21 5.90909 1259.06 6.65341 1259.05 7.64489C1259.05 8.31534 1259.12 8.875 1259.25 9.32386C1259.39 9.76989 1259.58 10.1051 1259.83 10.3295C1260.08 10.5511 1260.37 10.6619 1260.7 10.6619Z" fill="white"/>
<line x1="2.5" y1="21.5" x2="1263.5" y2="21.5" stroke="#AEAEAE" stroke-width="5" stroke-linecap="round"/>
<line x1="2.5" y1="21.5" x2="788.984" y2="21.5" stroke="#FF914D" stroke-width="5" stroke-linecap="round"/>
<ellipse cx="788.605" cy="22" rx="6.56442" ry="7" fill="#FF914D"/>
</svg>
