<svg width="1018" height="65" viewBox="0 0 1018 65" fill="none" xmlns="http://www.w3.org/2000/svg">
<path d="M5 23.7724V42.5105C5 43.6539 6.48087 44.2281 7.34712 43.4188L16 35.3344L24.6529 43.4188C25.5191 44.2281 27 43.6552 27 42.5105V23.7724C27 23.091 26.7103 22.4375 26.1945 21.9557C25.6788 21.4738 24.9793 21.2031 24.25 21.2031H7.75C7.02065 21.2031 6.32118 21.4738 5.80546 21.9557C5.28973 22.4375 5 23.091 5 23.7724Z" stroke="white" stroke-width="3" stroke-linecap="round" stroke-linejoin="round"/>
<path d="M240.375 34.6875C240.375 37.2834 241.145 39.821 242.587 41.9794C244.029 44.1378 246.079 45.82 248.477 46.8134C250.876 47.8068 253.515 48.0667 256.061 47.5603C258.607 47.0539 260.945 45.8038 262.781 43.9683C264.616 42.1327 265.866 39.7941 266.373 37.2481C266.879 34.7021 266.619 32.0631 265.626 29.6648C264.633 27.2665 262.95 25.2167 260.792 23.7745C258.633 22.3323 256.096 21.5625 253.5 21.5625H249.125V16.0938L242.562 22.6563L249.125 29.2188V23.75H253.5C255.663 23.75 257.778 24.3915 259.577 25.5933C261.375 26.7951 262.777 28.5033 263.605 30.5019C264.433 32.5005 264.649 34.6996 264.227 36.8213C263.805 38.943 262.764 40.8918 261.234 42.4215C259.704 43.9511 257.755 44.9928 255.634 45.4148C253.512 45.8369 251.313 45.6203 249.314 44.7924C247.316 43.9646 245.608 42.5627 244.406 40.7641C243.204 38.9654 242.562 36.8507 242.562 34.6875H240.375Z" fill="white"/>
<path d="M257.47 39.2048C256.987 39.2166 256.508 39.1155 256.07 38.9095C255.682 38.7123 255.348 38.4232 255.097 38.0673C254.822 37.652 254.629 37.1879 254.528 36.7001C254.399 36.0963 254.337 35.48 254.342 34.8626C254.338 34.2452 254.4 33.6291 254.528 33.0251C254.631 32.5379 254.824 32.0742 255.097 31.6579C255.348 31.3019 255.682 31.0128 256.07 30.8157C256.508 30.6097 256.987 30.5085 257.47 30.5204C257.925 30.4858 258.381 30.5682 258.794 30.7596C259.208 30.9511 259.565 31.2453 259.833 31.6141C260.397 32.5842 260.663 33.6986 260.599 34.8188C260.663 35.939 260.397 37.0535 259.833 38.0235C259.575 38.4085 259.222 38.7198 258.808 38.9269C258.394 39.134 257.933 39.2298 257.47 39.2048ZM257.47 37.8704C257.691 37.8836 257.911 37.8341 258.104 37.7276C258.298 37.6212 258.457 37.4621 258.564 37.2688C258.826 36.7572 258.964 36.1917 258.969 35.6173V34.1079C258.993 33.5438 258.884 32.9819 258.652 32.4673C258.529 32.2799 258.362 32.1261 258.166 32.0196C257.969 31.9131 257.749 31.8573 257.525 31.8573C257.301 31.8573 257.081 31.9131 256.885 32.0196C256.688 32.1261 256.521 32.2799 256.399 32.4673C256.166 32.9819 256.058 33.5438 256.081 34.1079V35.6173C256.059 36.1848 256.167 36.75 256.399 37.2688C256.503 37.4595 256.659 37.617 256.848 37.7233C257.038 37.8297 257.253 37.8807 257.47 37.8704ZM247.627 39.0626V37.7719H249.814V32.0954L247.78 33.1891L247.178 32.0298L249.716 30.6079H251.313V37.7173H253.259V39.0626H247.627Z" fill="white"/>
<path d="M502.083 43.3337C502.851 43.3337 503.494 43.0737 504.014 42.5537C504.534 42.0337 504.793 41.3909 504.792 40.6253V24.3753C504.792 23.608 504.532 22.9643 504.012 22.4443C503.492 21.9243 502.849 21.6652 502.083 21.667C501.316 21.667 500.672 21.927 500.152 22.447C499.632 22.967 499.373 23.6098 499.375 24.3753V40.6253C499.375 41.3927 499.635 42.0364 500.155 42.5564C500.675 43.0764 501.318 43.3355 502.083 43.3337ZM512.917 43.3337C513.684 43.3337 514.328 43.0737 514.848 42.5537C515.368 42.0337 515.627 41.3909 515.625 40.6253V24.3753C515.625 23.608 515.365 22.9643 514.845 22.4443C514.325 21.9243 513.682 21.6652 512.917 21.667C512.149 21.667 511.505 21.927 510.985 22.447C510.465 22.967 510.206 23.6098 510.208 24.3753V40.6253C510.208 41.3927 510.468 42.0364 510.988 42.5564C511.508 43.0764 512.151 43.3355 512.917 43.3337ZM507.5 59.5837C503.753 59.5837 500.232 58.8723 496.937 57.4495C493.642 56.0267 490.776 54.0975 488.338 51.6618C485.901 49.2243 483.972 46.358 482.551 43.0628C481.13 39.7677 480.418 36.2469 480.417 32.5003C480.417 28.7538 481.128 25.233 482.551 21.9378C483.973 18.6427 485.903 15.7764 488.338 13.3389C490.776 10.9014 493.642 8.97213 496.937 7.55116C500.232 6.13019 503.753 5.4188 507.5 5.41699C511.246 5.41699 514.767 6.12838 518.062 7.55116C521.357 8.97394 524.224 10.9032 526.661 13.3389C529.099 15.7764 531.029 18.6427 532.452 21.9378C533.874 25.233 534.585 28.7538 534.583 32.5003C534.583 36.2469 533.872 39.7677 532.449 43.0628C531.026 46.358 529.097 49.2243 526.661 51.6618C524.224 54.0993 521.357 56.0294 518.062 57.4522C514.767 58.875 511.246 59.5855 507.5 59.5837ZM507.5 54.167C513.548 54.167 518.672 52.068 522.87 47.8701C527.068 43.6722 529.167 38.5489 529.167 32.5003C529.167 26.4517 527.068 21.3284 522.87 17.1305C518.672 12.9326 513.548 10.8337 507.5 10.8337C501.451 10.8337 496.328 12.9326 492.13 17.1305C487.932 21.3284 485.833 26.4517 485.833 32.5003C485.833 38.5489 487.932 43.6722 492.13 47.8701C496.328 52.068 501.451 54.167 507.5 54.167Z" fill="white"/>
<path d="M772.438 34.6875C772.438 36.8507 771.796 38.9654 770.594 40.7641C769.392 42.5627 767.684 43.9646 765.686 44.7924C763.687 45.6203 761.488 45.8369 759.366 45.4148C757.245 44.9928 755.296 43.9511 753.766 42.4215C752.236 40.8918 751.195 38.943 750.773 36.8213C750.351 34.6996 750.567 32.5005 751.395 30.5019C752.223 28.5033 753.625 26.7951 755.423 25.5933C757.222 24.3915 759.337 23.75 761.5 23.75H765.875V29.2188L772.438 22.6563L765.875 16.0938V21.5625H761.5C758.904 21.5625 756.367 22.3323 754.208 23.7745C752.05 25.2167 750.367 27.2665 749.374 29.6648C748.381 32.0631 748.121 34.7021 748.627 37.2481C749.134 39.7941 750.384 42.1327 752.219 43.9683C754.055 45.8038 756.393 47.0539 758.939 47.5603C761.485 48.0667 764.124 47.8068 766.523 46.8134C768.921 45.82 770.971 44.1378 772.413 41.9794C773.855 39.821 774.625 37.2834 774.625 34.6875H772.438Z" fill="white"/>
<path d="M765.47 39.2048C764.987 39.2166 764.508 39.1155 764.07 38.9095C763.682 38.7123 763.348 38.4232 763.097 38.0673C762.822 37.652 762.629 37.1879 762.528 36.7001C762.399 36.0963 762.337 35.48 762.342 34.8626C762.338 34.2452 762.4 33.6291 762.528 33.0251C762.631 32.5379 762.824 32.0742 763.097 31.6579C763.348 31.3019 763.682 31.0128 764.07 30.8157C764.508 30.6097 764.987 30.5085 765.47 30.5204C765.925 30.4858 766.381 30.5682 766.794 30.7596C767.208 30.9511 767.565 31.2453 767.833 31.6141C768.397 32.5842 768.663 33.6986 768.599 34.8188C768.663 35.939 768.397 37.0535 767.833 38.0235C767.575 38.4085 767.222 38.7198 766.808 38.9269C766.394 39.134 765.933 39.2298 765.47 39.2048ZM765.47 37.8704C765.691 37.8836 765.911 37.8341 766.104 37.7276C766.298 37.6212 766.457 37.4621 766.564 37.2688C766.826 36.7572 766.964 36.1918 766.969 35.6173V34.1079C766.993 33.5438 766.884 32.9819 766.652 32.4673C766.529 32.2799 766.362 32.1261 766.166 32.0196C765.969 31.9131 765.749 31.8573 765.525 31.8573C765.301 31.8573 765.081 31.9131 764.885 32.0196C764.688 32.1261 764.521 32.2799 764.399 32.4673C764.166 32.9819 764.058 33.5438 764.081 34.1079V35.6173C764.059 36.1848 764.167 36.75 764.399 37.2688C764.503 37.4595 764.659 37.617 764.848 37.7233C765.038 37.8297 765.253 37.8807 765.47 37.8704ZM755.627 39.0626V37.7719H757.814V32.0954L755.78 33.1891L755.178 32.0298L757.716 30.6079H759.313V37.7173H761.259V39.0626H755.627Z" fill="white"/>
<path d="M987.375 29.5835V35.4168C987.375 36.2189 988.031 36.8751 988.833 36.8751H993.208L998.006 41.673C998.925 42.5918 1000.5 41.9355 1000.5 40.6376V24.348C1000.5 23.0501 998.925 22.3939 998.006 23.3126L993.208 28.1251H988.833C988.031 28.1251 987.375 28.7814 987.375 29.5835ZM1007.06 32.5001C1007.06 31.2782 1006.72 30.0807 1006.08 29.0423C1005.43 28.004 1004.51 27.1661 1003.42 26.623V38.3626C1005.58 37.298 1007.06 35.0814 1007.06 32.5001ZM1003.42 21.4897V21.7814C1003.42 22.3355 1003.78 22.8168 1004.29 23.021C1008.05 24.523 1010.71 28.2126 1010.71 32.5001C1010.71 36.7876 1008.05 40.4772 1004.29 41.9793C1003.77 42.1835 1003.42 42.6647 1003.42 43.2189V43.5105C1003.42 44.4293 1004.34 45.071 1005.18 44.7501C1010.13 42.8689 1013.63 38.1001 1013.63 32.5001C1013.63 26.9001 1010.13 22.1314 1005.18 20.2501C1004.34 19.9147 1003.42 20.571 1003.42 21.4897Z" fill="white"/>
</svg>
