<svg width="34" height="40" viewBox="0 0 34 40" fill="none" xmlns="http://www.w3.org/2000/svg">
<path d="M22 10.6024C21.3667 10.6024 20.8 10.8283 20.3667 11.1822L14.425 8.05723C14.4667 7.88404 14.5 7.71084 14.5 7.53012C14.5 7.3494 14.4667 7.17621 14.425 7.00301L20.3 3.90813C20.75 4.28464 21.3417 4.51807 22 4.51807C23.3833 4.51807 24.5 3.50904 24.5 2.25904C24.5 1.00904 23.3833 0 22 0C20.6167 0 19.5 1.00904 19.5 2.25904C19.5 2.43976 19.5333 2.61295 19.575 2.78614L13.7 5.88102C13.25 5.50452 12.6583 5.27108 12 5.27108C10.6167 5.27108 9.5 6.28012 9.5 7.53012C9.5 8.78012 10.6167 9.78916 12 9.78916C12.6583 9.78916 13.25 9.55572 13.7 9.17922L19.6333 12.3117C19.5917 12.4699 19.5667 12.6355 19.5667 12.8012C19.5667 14.0136 20.6583 15 22 15C23.3417 15 24.4333 14.0136 24.4333 12.8012C24.4333 11.5889 23.3417 10.6024 22 10.6024ZM22 1.50602C22.4583 1.50602 22.8333 1.84488 22.8333 2.25904C22.8333 2.67319 22.4583 3.01205 22 3.01205C21.5417 3.01205 21.1667 2.67319 21.1667 2.25904C21.1667 1.84488 21.5417 1.50602 22 1.50602ZM12 8.28313C11.5417 8.28313 11.1667 7.94428 11.1667 7.53012C11.1667 7.11596 11.5417 6.77711 12 6.77711C12.4583 6.77711 12.8333 7.11596 12.8333 7.53012C12.8333 7.94428 12.4583 8.28313 12 8.28313ZM22 13.5693C21.5417 13.5693 21.1667 13.2304 21.1667 12.8163C21.1667 12.4021 21.5417 12.0633 22 12.0633C22.4583 12.0633 22.8333 12.4021 22.8333 12.8163C22.8333 13.2304 22.4583 13.5693 22 13.5693Z" fill="white"/>
<path d="M5.4929 30.7827C5.45881 30.4389 5.3125 30.1719 5.05398 29.9815C4.79545 29.7912 4.4446 29.696 4.00142 29.696C3.70028 29.696 3.44602 29.7386 3.23864 29.8239C3.03125 29.9062 2.87216 30.0213 2.76136 30.169C2.65341 30.3168 2.59943 30.4844 2.59943 30.6719C2.59375 30.8281 2.62642 30.9645 2.69744 31.081C2.77131 31.1974 2.87216 31.2983 3 31.3835C3.12784 31.4659 3.27557 31.5384 3.44318 31.6009C3.6108 31.6605 3.78977 31.7116 3.98011 31.7543L4.7642 31.9418C5.14489 32.027 5.49432 32.1406 5.8125 32.2827C6.13068 32.4247 6.40625 32.5994 6.6392 32.8068C6.87216 33.0142 7.05256 33.2585 7.1804 33.5398C7.31108 33.821 7.37784 34.1435 7.38068 34.5071C7.37784 35.0412 7.24148 35.5043 6.97159 35.8963C6.70455 36.2855 6.31818 36.5881 5.8125 36.804C5.30966 37.017 4.70313 37.1236 3.9929 37.1236C3.28835 37.1236 2.67472 37.0156 2.15199 36.7997C1.6321 36.5838 1.22585 36.2642 0.933239 35.8409C0.643466 35.4148 0.491477 34.8878 0.477273 34.2599H2.26278C2.28267 34.5526 2.36648 34.7969 2.5142 34.9929C2.66477 35.1861 2.86506 35.3324 3.11506 35.4318C3.3679 35.5284 3.65341 35.5767 3.97159 35.5767C4.28409 35.5767 4.5554 35.5312 4.78551 35.4403C5.01847 35.3494 5.19886 35.223 5.3267 35.0611C5.45455 34.8991 5.51847 34.7131 5.51847 34.5028C5.51847 34.3068 5.46023 34.142 5.34375 34.0085C5.23011 33.875 5.0625 33.7614 4.84091 33.6676C4.62216 33.5739 4.35369 33.4886 4.03551 33.4119L3.08523 33.1733C2.34943 32.9943 1.76847 32.7145 1.34233 32.3338C0.916193 31.9531 0.704545 31.4403 0.707386 30.7955C0.704545 30.267 0.84517 29.8054 1.12926 29.4105C1.41619 29.0156 1.80966 28.7074 2.30966 28.4858C2.80966 28.2642 3.37784 28.1534 4.0142 28.1534C4.66193 28.1534 5.22727 28.2642 5.71023 28.4858C6.19602 28.7074 6.57386 29.0156 6.84375 29.4105C7.11364 29.8054 7.25284 30.2628 7.26136 30.7827H5.4929ZM10.1751 33.2159V37H8.35971V28.2727H10.1239V31.6094H10.2006C10.3483 31.223 10.587 30.9205 10.9165 30.7017C11.2461 30.4801 11.6594 30.3693 12.1566 30.3693C12.6111 30.3693 13.0074 30.4688 13.3455 30.6676C13.6864 30.8636 13.9506 31.1463 14.1381 31.5156C14.3285 31.8821 14.4222 32.321 14.4194 32.8324V37H12.604V33.1562C12.6069 32.7528 12.5046 32.4389 12.2972 32.2145C12.0927 31.9901 11.8057 31.8778 11.4364 31.8778C11.1893 31.8778 10.9705 31.9304 10.7802 32.0355C10.5927 32.1406 10.4449 32.294 10.337 32.4957C10.2319 32.6946 10.1779 32.9347 10.1751 33.2159ZM17.4865 37.1236C17.0689 37.1236 16.6967 37.0511 16.37 36.9062C16.0433 36.7585 15.7848 36.5412 15.5944 36.2543C15.4069 35.9645 15.3132 35.6037 15.3132 35.1719C15.3132 34.8082 15.3799 34.5028 15.5135 34.2557C15.647 34.0085 15.8288 33.8097 16.0589 33.6591C16.289 33.5085 16.5504 33.3949 16.843 33.3182C17.1385 33.2415 17.4481 33.1875 17.772 33.1562C18.1527 33.1165 18.4595 33.0795 18.6924 33.0455C18.9254 33.0085 19.0944 32.9545 19.1995 32.8835C19.3047 32.8125 19.3572 32.7074 19.3572 32.5682V32.5426C19.3572 32.2727 19.272 32.0639 19.1015 31.9162C18.9339 31.7685 18.6953 31.6946 18.3856 31.6946C18.0589 31.6946 17.799 31.767 17.6058 31.9119C17.4126 32.054 17.2848 32.233 17.2223 32.4489L15.5433 32.3125C15.6285 31.9148 15.7961 31.571 16.0461 31.2812C16.2961 30.9886 16.6186 30.7642 17.0135 30.608C17.4112 30.4489 17.8714 30.3693 18.3941 30.3693C18.7578 30.3693 19.1058 30.4119 19.4382 30.4972C19.7734 30.5824 20.0703 30.7145 20.3288 30.8935C20.5902 31.0724 20.7961 31.3026 20.9467 31.5838C21.0973 31.8622 21.1726 32.196 21.1726 32.5852V37H19.451V36.0923H19.3998C19.2947 36.2969 19.1541 36.4773 18.9779 36.6335C18.8018 36.7869 18.5902 36.9077 18.343 36.9957C18.0958 37.081 17.8103 37.1236 17.4865 37.1236ZM18.0064 35.8707C18.2734 35.8707 18.5092 35.8182 18.7137 35.7131C18.9183 35.6051 19.0788 35.4602 19.1953 35.2784C19.3118 35.0966 19.37 34.8906 19.37 34.6605V33.9659C19.3132 34.0028 19.2351 34.0369 19.1356 34.0682C19.039 34.0966 18.9297 34.1236 18.8075 34.1491C18.6853 34.1719 18.5632 34.1932 18.441 34.2131C18.3189 34.2301 18.2081 34.2457 18.1086 34.2599C17.8956 34.2912 17.7095 34.3409 17.5504 34.4091C17.3913 34.4773 17.2677 34.5696 17.1797 34.6861C17.0916 34.7997 17.0476 34.9418 17.0476 35.1122C17.0476 35.3594 17.137 35.5483 17.316 35.679C17.4978 35.8068 17.7279 35.8707 18.0064 35.8707ZM22.3529 37V30.4545H24.1129V31.5966H24.1811C24.3004 31.1903 24.5007 30.8835 24.7819 30.6761C25.0632 30.4659 25.387 30.3608 25.7535 30.3608C25.8444 30.3608 25.9424 30.3665 26.0475 30.3778C26.1526 30.3892 26.245 30.4048 26.3245 30.4247V32.0355C26.2393 32.0099 26.1214 31.9872 25.9708 31.9673C25.8203 31.9474 25.6825 31.9375 25.5575 31.9375C25.2904 31.9375 25.0518 31.9957 24.8416 32.1122C24.6342 32.2259 24.4694 32.3849 24.3472 32.5895C24.2279 32.794 24.1683 33.0298 24.1683 33.2969V37H22.3529ZM29.7134 37.1278C29.0401 37.1278 28.4605 36.9915 27.9747 36.7188C27.4918 36.4432 27.1196 36.054 26.8582 35.5511C26.5969 35.0455 26.4662 34.4474 26.4662 33.7571C26.4662 33.0838 26.5969 32.4929 26.8582 31.9844C27.1196 31.4759 27.4875 31.0795 27.9619 30.7955C28.4392 30.5114 28.9989 30.3693 29.6409 30.3693C30.0727 30.3693 30.4747 30.4389 30.8469 30.5781C31.2219 30.7145 31.5486 30.9205 31.827 31.196C32.1082 31.4716 32.327 31.8182 32.4832 32.2358C32.6395 32.6506 32.7176 33.1364 32.7176 33.6932V34.1918H27.1906V33.0668H31.0088C31.0088 32.8054 30.952 32.5739 30.8384 32.3722C30.7247 32.1705 30.567 32.0128 30.3653 31.8991C30.1665 31.7827 29.9349 31.7244 29.6707 31.7244C29.3952 31.7244 29.1509 31.7884 28.9378 31.9162C28.7276 32.0412 28.5628 32.2102 28.4435 32.4233C28.3241 32.6335 28.2631 32.8679 28.2602 33.1264V34.196C28.2602 34.5199 28.3199 34.7997 28.4392 35.0355C28.5614 35.2713 28.7332 35.4531 28.9548 35.581C29.1764 35.7088 29.4392 35.7727 29.7432 35.7727C29.9449 35.7727 30.1295 35.7443 30.2972 35.6875C30.4648 35.6307 30.6082 35.5455 30.7276 35.4318C30.8469 35.3182 30.9378 35.179 31.0003 35.0142L32.6793 35.125C32.594 35.5284 32.4193 35.8807 32.1551 36.1818C31.8938 36.4801 31.5557 36.7131 31.1409 36.8807C30.729 37.0455 30.2531 37.1278 29.7134 37.1278Z" fill="white"/>
</svg>
