<svg width="59" height="58" viewBox="0 0 59 58" fill="none" xmlns="http://www.w3.org/2000/svg">
<path d="M15.1665 48.334V9.66732C15.1665 7.00898 17.3415 4.83398 19.9998 4.83398H39.3332C41.9915 4.83398 44.1665 7.00898 44.1665 9.66732V48.334C44.1665 50.9923 41.9915 53.1673 39.3332 53.1673H19.9998C17.3415 53.1673 15.1665 50.9923 15.1665 48.334Z" fill="#37474F"/>
<path d="M39.3332 8.45898H19.9998C19.2748 8.45898 18.7915 8.94232 18.7915 9.66732V44.709C18.7915 45.434 19.2748 45.9173 19.9998 45.9173H39.3332C40.0582 45.9173 40.5415 45.434 40.5415 44.709V9.66732C40.5415 8.94232 40.0582 8.45898 39.3332 8.45898Z" fill="#BBDEFB"/>
<path d="M26.0415 48.334H33.2915V50.7507H26.0415V48.334Z" fill="#78909C"/>
</svg>
