<svg width="49" height="50" viewBox="0 0 49 50" fill="none" xmlns="http://www.w3.org/2000/svg">
<g clip-path="url(#clip0_612_655)">
<path d="M48.6432 25.4675C48.6432 23.4191 48.4777 21.9242 48.1193 20.374H24.8179V29.6198H38.4953C38.2196 31.9175 36.7306 35.3778 33.4214 37.703L33.375 38.0126L40.7425 43.7422L41.2529 43.7933C45.9407 39.4471 48.6432 33.0525 48.6432 25.4675Z" fill="#4285F4"/>
<path d="M24.8179 49.8284C31.5187 49.8284 37.144 47.6137 41.2529 43.7937L33.4214 37.7034C31.3257 39.1706 28.5129 40.1948 24.8179 40.1948C18.2549 40.1948 12.6847 35.8489 10.699 29.8418L10.408 29.8666L2.74716 35.8183L2.64697 36.0979C6.72813 44.2365 15.1112 49.8284 24.8179 49.8284Z" fill="#34A853"/>
<path d="M10.6993 29.8418C10.1753 28.2916 9.87211 26.6306 9.87211 24.9143C9.87211 23.1979 10.1753 21.537 10.6717 19.9869L10.6578 19.6567L2.90099 13.6094L2.6472 13.7306C0.965159 17.1078 0 20.9004 0 24.9143C0 28.9283 0.965159 32.7206 2.6472 36.0979L10.6993 29.8418Z" fill="#FBBC05"/>
<path d="M24.8179 9.6334C29.4781 9.6334 32.6216 11.6542 34.4141 13.3429L41.4183 6.47767C37.1167 2.46374 31.5187 0 24.8179 0C15.1112 0 6.72813 5.59179 2.64697 13.7303L10.6715 19.9866C12.6847 13.9796 18.2549 9.6334 24.8179 9.6334Z" fill="#EB4335"/>
</g>
<defs>
<clipPath id="clip0_612_655">
<rect width="48.6667" height="50" fill="white"/>
</clipPath>
</defs>
</svg>
