<svg width="175" height="175" viewBox="0 0 175 175" fill="none" xmlns="http://www.w3.org/2000/svg">
<circle cx="87.5" cy="87.5" r="87.5" fill="#FD7D05"/>
<path d="M68.25 70.2498C68.25 68.2607 69.0402 66.353 70.4467 64.9465C71.8532 63.54 73.7609 62.7498 75.75 62.7498C77.7391 62.7498 79.6468 63.54 81.0533 64.9465C82.4598 66.353 83.25 68.2607 83.25 70.2498C83.25 72.2389 82.4598 74.1466 81.0533 75.5531C79.6468 76.9596 77.7391 77.7498 75.75 77.7498C73.7609 77.7498 71.8532 76.9596 70.4467 75.5531C69.0402 74.1466 68.25 72.2389 68.25 70.2498ZM75.75 66.4998C74.7554 66.4998 73.8016 66.8949 73.0984 67.5981C72.3951 68.3014 72 69.2552 72 70.2498C72 71.2444 72.3951 72.1982 73.0984 72.9014C73.8016 73.6047 74.7554 73.9998 75.75 73.9998C76.7446 73.9998 77.6984 73.6047 78.4016 72.9014C79.1049 72.1982 79.5 71.2444 79.5 70.2498C79.5 69.2552 79.1049 68.3014 78.4016 67.5981C77.6984 66.8949 76.7446 66.4998 75.75 66.4998ZM93.6712 76.1898C92.8856 75.5905 92.2261 74.8419 91.7307 73.987C91.2353 73.132 90.9136 72.1876 90.7843 71.208C90.655 70.2284 90.7206 69.2329 90.9772 68.2787C91.2339 67.3244 91.6765 66.4304 92.2798 65.6478C92.883 64.8652 93.635 64.2095 94.4924 63.7184C95.3499 63.2273 96.2959 62.9105 97.2762 62.7862C98.2564 62.6618 99.2516 62.7324 100.204 62.9939C101.157 63.2554 102.049 63.7026 102.829 64.3098C104.364 65.5376 105.355 67.3188 105.59 69.2702C105.825 71.2216 105.284 73.1872 104.085 74.7442C102.885 76.3011 101.122 77.3249 99.1754 77.5952C97.2286 77.8656 95.2497 77.3609 93.6712 76.1898ZM98.25 66.4998C97.2554 66.4998 96.3016 66.8949 95.5984 67.5981C94.8951 68.3014 94.5 69.2552 94.5 70.2498C94.5 71.2444 94.8951 72.1982 95.5984 72.9014C96.3016 73.6047 97.2554 73.9998 98.25 73.9998C99.2446 73.9998 100.198 73.6047 100.902 72.9014C101.605 72.1982 102 71.2444 102 70.2498C102 69.2552 101.605 68.3014 100.902 67.5981C100.198 66.8949 99.2446 66.4998 98.25 66.4998ZM66.375 81.4998H76.3875C75.975 82.6735 75.75 83.9373 75.75 85.2498H66.375C65.8777 85.2498 65.4008 85.4473 65.0492 85.799C64.6975 86.1506 64.5 86.6275 64.5 87.1248C64.5 90.1885 65.7188 92.461 67.6425 94.006C68.5275 94.7185 69.5887 95.2923 70.7887 95.7123C69.9075 96.649 69.2285 97.7569 68.7937 98.9673C67.535 98.4617 66.3564 97.7757 65.295 96.931C62.475 94.6623 60.75 91.3098 60.75 87.1248C60.75 85.633 61.3426 84.2022 62.3975 83.1473C63.4524 82.0924 64.8832 81.4998 66.375 81.4998ZM80.505 81.4998C79.5104 83.2234 79.2413 85.2714 79.7568 87.1935C80.2723 89.1155 81.5302 90.754 83.2537 91.7485C84.9773 92.7431 87.0254 93.0122 88.9474 92.4968C90.8694 91.9813 92.5079 90.7234 93.5025 88.9998C94.4971 87.2762 94.7662 85.2282 94.2507 83.3061C93.7352 81.3841 92.4773 79.7456 90.7538 78.751C89.0302 77.7565 86.9821 77.4873 85.0601 78.0028C83.1381 78.5183 81.4996 79.7762 80.505 81.4998ZM86.16 81.5935C86.7094 81.4694 87.2797 81.4703 87.8288 81.5961C88.3779 81.7219 88.8917 81.9694 89.3322 82.3204C89.7728 82.6714 90.129 83.1168 90.3744 83.6238C90.6197 84.1308 90.7481 84.6865 90.75 85.2498C90.7497 85.9554 90.5504 86.6466 90.1749 87.2439C89.7994 87.8413 89.263 88.3206 88.6273 88.6268C87.9916 88.933 87.2825 89.0536 86.5813 88.9748C85.8801 88.896 85.2154 88.621 84.6635 88.1814C84.1117 87.7418 83.695 87.1554 83.4614 86.4896C83.2279 85.8238 83.1869 85.1056 83.3432 84.4176C83.4995 83.7295 83.8467 83.0995 84.345 82.6C84.8432 82.1004 85.4724 81.7516 86.16 81.5935ZM106.357 94.006C105.472 94.7185 104.411 95.2923 103.211 95.7123C104.091 96.6493 104.769 97.7573 105.202 98.9673C106.478 98.446 107.659 97.7673 108.705 96.931C111.525 94.6623 113.25 91.3098 113.25 87.1248C113.25 85.633 112.657 84.2022 111.602 83.1473C110.548 82.0924 109.117 81.4998 107.625 81.4998H97.6125C98.025 82.6735 98.25 83.9373 98.25 85.2498H107.625C108.122 85.2498 108.599 85.4473 108.951 85.799C109.302 86.1506 109.5 86.6275 109.5 87.1248C109.5 90.1885 108.281 92.461 106.357 94.006ZM96.375 96.4998C97.8668 96.4998 99.2976 97.0924 100.352 98.1473C101.407 99.2022 102 100.633 102 102.125C102 106.31 100.279 109.662 97.455 111.931C94.6763 114.162 90.9487 115.25 87 115.25C83.0513 115.25 79.3237 114.162 76.545 111.931C73.725 109.662 72 106.31 72 102.125C71.998 101.386 72.1422 100.653 72.4241 99.9699C72.7061 99.2865 73.1204 98.6656 73.6431 98.1429C74.1658 97.6202 74.7867 97.2059 75.4701 96.9239C76.1534 96.642 76.8858 96.4978 77.625 96.4998H96.375ZM96.375 100.25H77.625C77.1277 100.25 76.6508 100.447 76.2992 100.799C75.9475 101.151 75.75 101.628 75.75 102.125C75.75 105.189 76.9688 107.461 78.8925 109.006C80.865 110.589 83.7 111.5 87 111.5C90.3 111.5 93.135 110.589 95.1075 109.006C97.0312 107.461 98.25 105.189 98.25 102.125C98.25 101.628 98.0525 101.151 97.7008 100.799C97.3492 100.447 96.8723 100.25 96.375 100.25Z" fill="black"/>
</svg>
