<svg width="175" height="175" viewBox="0 0 175 175" fill="none" xmlns="http://www.w3.org/2000/svg">
<circle cx="87.5" cy="87.5" r="87.5" fill="#FD7D05"/>
<path d="M47.5 55.5V85.5H37.5V55.5H47.5ZM57.5 85.5C56.1739 85.5 54.9021 84.9732 53.9645 84.0355C53.0268 83.0979 52.5 81.8261 52.5 80.5V55.5C52.5 54.125 53.05 52.875 53.975 51.975L70.425 35.5L73.075 38.15C73.75 38.825 74.175 39.75 74.175 40.775L74.1 41.575L71.725 53H87.5C88.8261 53 90.0978 53.5268 91.0355 54.4645C91.9732 55.4022 92.5 56.6739 92.5 58V63C92.5 63.65 92.375 64.25 92.15 64.825L84.6 82.45C83.85 84.25 82.075 85.5 80 85.5H57.5ZM57.5 80.5H80.075L87.5 63V58H65.525L68.35 44.7L57.5 55.575V80.5Z" fill="black" fill-opacity="0.8"/>
<path d="M95 120H125V115H95V120ZM95 112.5H125V107.5H95V112.5ZM95 105H125V100H95V105ZM135 140L125 130H90C88.625 130 87.4475 129.51 86.4675 128.53C85.4875 127.55 84.9983 126.373 85 125V95C85 93.625 85.49 92.4475 86.47 91.4675C87.45 90.4875 88.6267 89.9983 90 90H130C131.375 90 132.553 90.49 133.533 91.47C134.513 92.45 135.002 93.6267 135 95V140ZM90 95V125H127.063L130 127.938V95H90Z" fill="black" fill-opacity="0.8"/>
</svg>
