<svg width="59" height="58" viewBox="0 0 59 58" fill="none" xmlns="http://www.w3.org/2000/svg">
<path d="M15.1665 48.333V9.66634C15.1665 7.00801 17.3415 4.83301 19.9998 4.83301H39.3332C41.9915 4.83301 44.1665 7.00801 44.1665 9.66634V48.333C44.1665 50.9913 41.9915 53.1663 39.3332 53.1663H19.9998C17.3415 53.1663 15.1665 50.9913 15.1665 48.333Z" fill="#37474F"/>
<path d="M39.3332 8.45801H19.9998C19.2748 8.45801 18.7915 8.94134 18.7915 9.66634V44.708C18.7915 45.433 19.2748 45.9163 19.9998 45.9163H39.3332C40.0582 45.9163 40.5415 45.433 40.5415 44.708V9.66634C40.5415 8.94134 40.0582 8.45801 39.3332 8.45801Z" fill="#BBDEFB"/>
<path d="M26.0415 48.333H33.2915V50.7497H26.0415V48.333Z" fill="#78909C"/>
</svg>
