<svg width="25" height="25" viewBox="0 0 25 25" fill="none" xmlns="http://www.w3.org/2000/svg">
<path d="M20.8333 4.16669H4.16659C3.02075 4.16669 2.09367 5.10419 2.09367 6.25002L2.08325 18.75C2.08325 19.8959 3.02075 20.8334 4.16659 20.8334H20.8333C21.9791 20.8334 22.9166 19.8959 22.9166 18.75V6.25002C22.9166 5.10419 21.9791 4.16669 20.8333 4.16669ZM20.4166 8.59377L13.052 13.1979C12.7187 13.4063 12.2812 13.4063 11.9478 13.1979L4.58325 8.59377C4.4788 8.53514 4.38733 8.45592 4.31439 8.36091C4.24144 8.2659 4.18853 8.15708 4.15885 8.04103C4.12918 7.92498 4.12336 7.80412 4.14175 7.68576C4.16014 7.56739 4.20235 7.45399 4.26584 7.35242C4.32932 7.25084 4.41276 7.1632 4.51109 7.09481C4.60943 7.02641 4.72062 6.97868 4.83793 6.9545C4.95525 6.93032 5.07626 6.93019 5.19362 6.95413C5.31099 6.97807 5.42228 7.02558 5.52075 7.09377L12.4999 11.4584L19.4791 7.09377C19.5776 7.02558 19.6889 6.97807 19.8062 6.95413C19.9236 6.93019 20.0446 6.93032 20.1619 6.9545C20.2792 6.97868 20.3904 7.02641 20.4887 7.09481C20.5871 7.1632 20.6705 7.25084 20.734 7.35242C20.7975 7.45399 20.8397 7.56739 20.8581 7.68576C20.8765 7.80412 20.8707 7.92498 20.841 8.04103C20.8113 8.15708 20.7584 8.2659 20.6855 8.36091C20.6125 8.45592 20.521 8.53514 20.4166 8.59377Z" fill="white"/>
</svg>
