<svg width="30" height="30" viewBox="0 0 30 30" fill="none" xmlns="http://www.w3.org/2000/svg">
<path d="M15 26.25C12.375 26.25 10.0521 25.4529 8.03125 23.8587C6.01042 22.2646 4.69792 20.2283 4.09375 17.75C4.01042 17.4375 4.07292 17.1512 4.28125 16.8912C4.48959 16.6312 4.77084 16.48 5.125 16.4375C5.45834 16.3958 5.76042 16.4583 6.03125 16.625C6.30209 16.7917 6.48959 17.0417 6.59375 17.375C7.09375 19.25 8.125 20.7813 9.6875 21.9688C11.25 23.1562 13.0208 23.75 15 23.75C17.4375 23.75 19.5054 22.9008 21.2038 21.2025C22.9021 19.5042 23.7508 17.4367 23.75 15C23.75 12.5625 22.9008 10.4946 21.2025 8.79625C19.5042 7.09792 17.4367 6.24917 15 6.25C13.5625 6.25 12.2188 6.58333 10.9688 7.25C9.71875 7.91667 8.66667 8.83333 7.8125 10H10C10.3542 10 10.6513 10.12 10.8913 10.36C11.1313 10.6 11.2508 10.8967 11.25 11.25C11.25 11.6042 11.13 11.9013 10.89 12.1413C10.65 12.3813 10.3533 12.5008 10 12.5H5C4.64584 12.5 4.34875 12.38 4.10875 12.14C3.86875 11.9 3.74917 11.6033 3.75 11.25V6.25C3.75 5.89583 3.87 5.59875 4.11 5.35875C4.35 5.11875 4.64667 4.99917 5 5C5.35417 5 5.65125 5.12 5.89125 5.36C6.13125 5.6 6.25084 5.89667 6.25 6.25V7.9375C7.3125 6.60417 8.60959 5.57292 10.1413 4.84375C11.6729 4.11458 13.2925 3.75 15 3.75C16.5625 3.75 18.0263 4.04708 19.3913 4.64125C20.7563 5.23542 21.9438 6.03708 22.9538 7.04625C23.9638 8.05708 24.7658 9.24458 25.36 10.6088C25.9542 11.9729 26.2508 13.4367 26.25 15C26.25 16.5625 25.9529 18.0262 25.3588 19.3912C24.7646 20.7562 23.9629 21.9438 22.9538 22.9538C21.9429 23.9638 20.7554 24.7658 19.3913 25.36C18.0271 25.9542 16.5633 26.2508 15 26.25ZM16.25 14.5L19.375 17.625C19.6042 17.8542 19.7188 18.1458 19.7188 18.5C19.7188 18.8542 19.6042 19.1458 19.375 19.375C19.1458 19.6042 18.8542 19.7188 18.5 19.7188C18.1458 19.7188 17.8542 19.6042 17.625 19.375L14.125 15.875C14 15.75 13.9063 15.6096 13.8438 15.4537C13.7813 15.2979 13.75 15.1363 13.75 14.9688V10C13.75 9.64583 13.87 9.34875 14.11 9.10875C14.35 8.86875 14.6467 8.74917 15 8.75C15.3542 8.75 15.6513 8.87 15.8913 9.11C16.1313 9.35 16.2508 9.64667 16.25 10V14.5Z" fill="black"/>
</svg>
