<svg width="30" height="30" viewBox="0 0 30 30" fill="none" xmlns="http://www.w3.org/2000/svg">
<path d="M15.4688 2.8125C9.52406 2.8125 4.6875 7.64906 4.6875 13.5938C4.6875 17.9522 7.29281 21.7069 11.0231 23.4047C10.9192 22.661 10.8448 21.9136 10.8 21.1641C8.26219 19.5909 6.5625 16.7906 6.5625 13.5938C6.5625 8.68313 10.5581 4.6875 15.4688 4.6875C20.3794 4.6875 24.375 8.68313 24.375 13.5938C24.375 16.7916 22.6753 19.5919 20.1375 21.1631C20.0926 21.9126 20.0182 22.6601 19.9144 23.4038C23.6456 21.7078 26.25 17.9531 26.25 13.5938C26.25 7.64906 21.4134 2.8125 15.4688 2.8125ZM15.4688 6.5625C11.5912 6.5625 8.4375 9.71625 8.4375 13.5938C8.43784 14.643 8.6734 15.6788 9.12687 16.625C9.58034 17.5712 10.2402 18.4037 11.0578 19.0613C11.2812 18.4648 11.6495 17.9332 12.1294 17.5144C11.5603 17.0317 11.1031 16.431 10.7894 15.754C10.4757 15.077 10.3129 14.3399 10.3125 13.5938C10.3125 10.7512 12.6262 8.4375 15.4688 8.4375C18.3112 8.4375 20.625 10.7512 20.625 13.5938C20.6246 14.3399 20.4618 15.077 20.1481 15.754C19.8344 16.431 19.3772 17.0317 18.8081 17.5144C19.2887 17.9326 19.6571 18.4643 19.8797 19.0613C20.6973 18.4037 21.3572 17.5712 21.8106 16.625C22.2641 15.6788 22.4997 14.643 22.5 13.5938C22.5 9.71625 19.3463 6.5625 15.4688 6.5625ZM15.4688 10.3125C13.6594 10.3125 12.1875 11.7844 12.1875 13.5938C12.1875 15.4031 13.6594 16.875 15.4688 16.875C17.2781 16.875 18.75 15.4031 18.75 13.5938C18.75 11.7844 17.2781 10.3125 15.4688 10.3125ZM15.4688 12.1875C16.2441 12.1875 16.875 12.8184 16.875 13.5938C16.875 14.3691 16.2441 15 15.4688 15C14.6934 15 14.0625 14.3691 14.0625 13.5938C14.0625 12.8184 14.6934 12.1875 15.4688 12.1875ZM15.4688 17.8125C12.5072 17.8125 12.1875 19.7587 12.1875 20.5959C12.1875 22.1372 12.6909 25.2366 12.9656 26.4131C13.0875 26.9287 13.5731 28.125 15.4688 28.125C17.3644 28.125 17.85 26.9287 17.9719 26.4131C18.2466 25.2384 18.75 22.1372 18.75 20.5959C18.75 19.7587 18.4303 17.8125 15.4688 17.8125ZM15.4688 19.6875C16.875 19.6875 16.875 20.2125 16.875 20.5959C16.875 21.8475 16.4344 24.7491 16.1466 25.9847C16.1231 26.0831 16.0837 26.25 15.4688 26.25C14.8538 26.25 14.8144 26.0841 14.7909 25.9866C14.5041 24.7547 14.0625 21.8484 14.0625 20.5959C14.0625 20.2116 14.0625 19.6875 15.4688 19.6875Z" fill="black"/>
</svg>
