<svg width="72" height="72" viewBox="0 0 72 72" fill="none" xmlns="http://www.w3.org/2000/svg">
<path d="M13.9949 51.377C13.0329 49.308 17.3979 45.153 20.0119 39.295C21.1389 36.77 21.2419 34.588 20.7499 32.911C19.4679 30.341 18.3939 29.291 17.3329 26.788C16.4889 24.798 25.5069 26.498 25.7259 26.412C26.6109 25.626 28.9899 16.858 31.1519 14.172C32.1399 12.945 34.5479 11.53 36.9329 11.67C38.9509 11.789 41.0339 12.972 41.8929 14.045C44.0649 16.758 46.6069 26.251 47.3239 26.399C49.2539 26.799 55.2929 24.502 55.6449 26.811C55.7219 27.317 53.7249 32.586 53.4009 32.926C52.8319 34.274 52.2359 36.299 53.0849 38.406C54.2979 41.418 59.1399 46.992 59.1389 52.43C59.1389 52.622 58.2129 57.95 51.4489 56.077C51.2979 56.035 51.2649 55.939 51.1809 55.875C49.6409 54.706 46.4679 54.101 43.5709 54.957C40.1539 55.967 40.7599 57.935 36.6169 59.68C35.5329 60.137 33.5059 60.964 30.8439 60.73C30.1289 60.667 28.0649 60.463 26.0319 59.124C23.1169 57.204 23.6719 55.195 21.2439 53.424C18.0289 51.075 14.6919 52.875 13.9949 51.377Z" fill="white"/>
<path d="M39.8979 26.399C40.8407 26.399 41.6049 24.9722 41.6049 23.212C41.6049 21.4519 40.8407 20.025 39.8979 20.025C38.9552 20.025 38.1909 21.4519 38.1909 23.212C38.1909 24.9722 38.9552 26.399 39.8979 26.399Z" fill="#3F3F3F"/>
<path d="M36.5191 32.4659C37.4989 32.4659 38.2931 31.5145 38.2931 30.3409C38.2931 29.1673 37.4989 28.2159 36.5191 28.2159C35.5394 28.2159 34.7451 29.1673 34.7451 30.3409C34.7451 31.5145 35.5394 32.4659 36.5191 32.4659Z" fill="#3F3F3F"/>
<path d="M40.1211 56.677C40.8361 56.614 45.0001 55 46.9281 55.153C50.4081 55.429 54.5731 57.773 57.0001 56C60.2151 53.652 58.2681 52.904 58.9651 51.406C59.9271 49.336 55.5621 45.182 52.9481 39.324C51.8211 36.799 51.7181 34.617 52.2101 32.94C53.4921 30.37 54.5661 29.32 55.6271 26.817C56.4711 24.827 47.4531 26.527 47.2341 26.441C46.3491 25.655 46.1321 19.573 43.9701 16.887" fill="#D0CFCE"/>
<path d="M33.101 26.399C34.0438 26.399 34.808 24.9722 34.808 23.212C34.808 21.4519 34.0438 20.025 33.101 20.025C32.1583 20.025 31.394 21.4519 31.394 23.212C31.394 24.9722 32.1583 26.399 33.101 26.399Z" fill="#3F3F3F"/>
<path d="M39.8779 26.399C40.8206 26.399 41.5849 24.9722 41.5849 23.212C41.5849 21.4519 40.8206 20.025 39.8779 20.025C38.9351 20.025 38.1709 21.4519 38.1709 23.212C38.1709 24.9722 38.9351 26.399 39.8779 26.399Z" stroke="black" stroke-width="2" stroke-miterlimit="10" stroke-linecap="round" stroke-linejoin="round"/>
<path d="M13.9749 51.377C13.0129 49.308 17.3779 45.153 19.9919 39.295C21.1189 36.77 21.2219 34.588 20.7299 32.911C19.4479 30.341 18.3739 29.291 17.3129 26.788C16.4689 24.798 25.4869 26.498 25.7059 26.412C26.5909 25.626 28.9699 16.858 31.1319 14.172C32.1199 12.945 34.5279 11.53 36.9129 11.67C38.9309 11.789 41.0139 12.972 41.8729 14.045C44.0439 16.758 46.5869 26.251 47.3039 26.399C49.2339 26.799 55.2729 24.502 55.6249 26.811C55.7019 27.317 53.7049 32.586 53.3809 32.926C52.8119 34.274 52.2159 36.299 53.0649 38.406C54.2779 41.418 59.1199 46.992 59.1189 52.43C59.1189 52.622 58.1929 57.95 51.4289 56.077C51.2779 56.035 46.4479 54.101 43.5509 54.957C40.1339 55.967 40.7399 57.935 36.5969 59.68C35.5129 60.137 33.4859 60.964 30.8239 60.73C30.1089 60.667 28.0449 60.463 26.0119 59.124C23.0969 57.204 23.6519 55.195 21.2239 53.424C18.0089 51.075 14.6719 52.875 13.9749 51.377Z" stroke="black" stroke-width="2" stroke-miterlimit="10" stroke-linecap="round" stroke-linejoin="round"/>
<path d="M36.4991 32.4661C37.4789 32.4661 38.2731 31.5147 38.2731 30.3411C38.2731 29.1675 37.4789 28.2161 36.4991 28.2161C35.5193 28.2161 34.7251 29.1675 34.7251 30.3411C34.7251 31.5147 35.5193 32.4661 36.4991 32.4661Z" stroke="black" stroke-width="2" stroke-miterlimit="10" stroke-linecap="round" stroke-linejoin="round"/>
<path d="M33.081 26.399C34.0238 26.399 34.788 24.9722 34.788 23.212C34.788 21.4519 34.0238 20.025 33.081 20.025C32.1383 20.025 31.374 21.4519 31.374 23.212C31.374 24.9722 32.1383 26.399 33.081 26.399Z" stroke="black" stroke-width="2" stroke-miterlimit="10" stroke-linecap="round" stroke-linejoin="round"/>
</svg>
