<svg width="49" height="52" viewBox="0 0 49 52" fill="none" xmlns="http://www.w3.org/2000/svg">
<path d="M27.8779 16.399C28.8206 16.399 29.5849 14.9722 29.5849 13.212C29.5849 11.4519 28.8206 10.025 27.8779 10.025C26.9351 10.025 26.1709 11.4519 26.1709 13.212C26.1709 14.9722 26.9351 16.399 27.8779 16.399Z" stroke="black" stroke-width="2" stroke-miterlimit="10" stroke-linecap="round" stroke-linejoin="round"/>
<path d="M1.97491 41.377C1.01291 39.308 5.37791 35.153 7.99191 29.295C9.11891 26.77 9.22191 24.588 8.72991 22.911C7.44791 20.341 6.37391 19.291 5.31291 16.788C4.46891 14.798 13.4869 16.498 13.7059 16.412C14.5909 15.626 16.9699 6.85802 19.1319 4.17202C20.1199 2.94502 22.5279 1.53002 24.9129 1.67002C26.9309 1.78902 29.0139 2.97202 29.8729 4.04502C32.0439 6.75802 34.5869 16.251 35.3039 16.399C37.2339 16.799 43.2729 14.502 43.6249 16.811C43.7019 17.317 41.7049 22.586 41.3809 22.926C40.8119 24.274 40.2159 26.299 41.0649 28.406C42.2779 31.418 47.1199 36.992 47.1189 42.43C47.1189 42.622 46.1929 47.95 39.4289 46.077C39.2779 46.035 34.4479 44.101 31.5509 44.957C28.1339 45.967 28.7399 47.935 24.5969 49.68C23.5129 50.137 21.4859 50.964 18.8239 50.73C18.1089 50.667 16.0449 50.463 14.0119 49.124C11.0969 47.204 11.6519 45.195 9.22391 43.424C6.00891 41.075 2.67191 42.875 1.97491 41.377Z" stroke="black" stroke-width="2" stroke-miterlimit="10" stroke-linecap="round" stroke-linejoin="round"/>
<path d="M24.4991 22.4661C25.4789 22.4661 26.2731 21.5147 26.2731 20.3411C26.2731 19.1675 25.4789 18.2161 24.4991 18.2161C23.5193 18.2161 22.7251 19.1675 22.7251 20.3411C22.7251 21.5147 23.5193 22.4661 24.4991 22.4661Z" stroke="black" stroke-width="2" stroke-miterlimit="10" stroke-linecap="round" stroke-linejoin="round"/>
<path d="M21.081 16.399C22.0238 16.399 22.788 14.9722 22.788 13.212C22.788 11.4519 22.0238 10.025 21.081 10.025C20.1383 10.025 19.374 11.4519 19.374 13.212C19.374 14.9722 20.1383 16.399 21.081 16.399Z" stroke="black" stroke-width="2" stroke-miterlimit="10" stroke-linecap="round" stroke-linejoin="round"/>
</svg>
