<svg width="25" height="25" viewBox="0 0 25 25" fill="none" xmlns="http://www.w3.org/2000/svg">
<path d="M19.4286 24C18.525 24 17.7512 23.678 17.1072 23.034C16.4632 22.39 16.1418 21.6168 16.1429 20.7143V4.28572C16.1429 3.38214 16.4649 2.60836 17.1089 1.96436C17.7529 1.32036 18.5261 0.998908 19.4286 1C20.3321 1 21.1059 1.322 21.7499 1.966C22.3939 2.61 22.7154 3.38324 22.7143 4.28572V20.7143C22.7143 21.6179 22.3923 22.3916 21.7483 23.0356C21.1043 23.6796 20.331 24.0011 19.4286 24ZM6.28572 24C5.38214 24 4.60836 23.678 3.96436 23.034C3.32036 22.39 2.99891 21.6168 3 20.7143V4.28572C3 3.38214 3.322 2.60836 3.966 1.96436C4.61 1.32036 5.38324 0.998908 6.28572 1C7.18929 1 7.96307 1.322 8.60707 1.966C9.25107 2.61 9.57252 3.38324 9.57143 4.28572V20.7143C9.57143 21.6179 9.24943 22.3916 8.60543 23.0356C7.96143 23.6796 7.18819 24.0011 6.28572 24Z" fill="black"/>
</svg>
